<svg width="24" height="24" viewBox="0 0 24 24" fill="none" xmlns="http://www.w3.org/2000/svg">
<g id="i_bookmark">
<g id="Union">
<mask id="path-1-inside-1_2347_16385" fill="white">
<path fill-rule="evenodd" clip-rule="evenodd" d="M8 4C5.79086 4 4 5.79086 4 8V10.3161V11.0999V18.4325C4 20.0928 5.90605 21.0301 7.22101 20.0165L10.779 17.2739C11.4985 16.7193 12.5015 16.7193 13.221 17.2739L16.779 20.0165C18.0939 21.0301 20 20.0928 20 18.4325V11.0999V10.3161V8C20 5.79086 18.2091 4 16 4H8Z"/>
</mask>
<path d="M7.22101 20.0165L8.44202 21.6005L8.44202 21.6005L7.22101 20.0165ZM10.779 17.2739L9.55798 15.6899L9.55798 15.6899L10.779 17.2739ZM13.221 17.2739L14.442 15.6899L14.442 15.6899L13.221 17.2739ZM16.779 20.0165L15.558 21.6005L15.558 21.6005L16.779 20.0165ZM6 8C6 6.89543 6.89543 6 8 6V2C4.68629 2 2 4.68629 2 8H6ZM6 10.3161V8H2V10.3161H6ZM6 11.0999V10.3161H2V11.0999H6ZM6 18.4325V11.0999H2V18.4325H6ZM6 18.4325L6 18.4325H2C2 21.753 5.81211 23.6278 8.44202 21.6005L6 18.4325ZM9.55798 15.6899L6 18.4325L8.44202 21.6005L12 18.8579L9.55798 15.6899ZM14.442 15.6899C13.003 14.5806 10.997 14.5806 9.55798 15.6899L12 18.8579H12L14.442 15.6899ZM18 18.4325L14.442 15.6899L12 18.8579L15.558 21.6005L18 18.4325ZM18 18.4325L15.558 21.6005C18.1879 23.6278 22 21.753 22 18.4325H18ZM18 11.0999V18.4325H22V11.0999H18ZM18 10.3161V11.0999H22V10.3161H18ZM18 8V10.3161H22V8H18ZM16 6C17.1046 6 18 6.89543 18 8H22C22 4.68629 19.3137 2 16 2V6ZM8 6H16V2H8V6Z" fill="#111111" mask="url(#path-1-inside-1_2347_16385)"/>
</g>
</g>
</svg>
