<svg width="6" height="8" viewBox="0 0 6 8" fill="none" xmlns="http://www.w3.org/2000/svg">
<mask id="path-1-inside-1_357_3217" fill="white">
<path d="M0 1C0 0.447715 0.447715 0 1 0C1.55228 0 2 0.447715 2 1V7C2 7.55228 1.55228 8 1 8C0.447715 8 0 7.55228 0 7V1Z"/>
</mask>
<path d="M0 1C0 0.447715 0.447715 0 1 0C1.55228 0 2 0.447715 2 1V7C2 7.55228 1.55228 8 1 8C0.447715 8 0 7.55228 0 7V1Z" fill="white"/>
<path d="M0 1V7H4V1H0ZM2 7V1H-2V7H2ZM1 6C1.55228 6 2 6.44772 2 7H-2C-2 8.65685 -0.656854 10 1 10V6ZM0 7C0 6.44772 0.447715 6 1 6V10C2.65685 10 4 8.65685 4 7H0ZM1 2C0.447715 2 0 1.55228 0 1H4C4 -0.656854 2.65685 -2 1 -2V2ZM1 -2C-0.656854 -2 -2 -0.656854 -2 1H2C2 1.55228 1.55228 2 1 2V-2Z" fill="#404040" mask="url(#path-1-inside-1_357_3217)"/>
<rect x="4.5" y="0.5" width="1" height="7" rx="0.5" fill="white" stroke="#404040"/>
</svg>
