<svg width="24" height="24" viewBox="0 0 24 24" fill="none" xmlns="http://www.w3.org/2000/svg">
<path d="M12.7681 19.5003C11.7241 19.0355 10.8415 18.2716 10.2317 17.3052C9.62193 16.3387 9.31244 15.2132 9.34236 14.0708C9.37228 12.9285 9.74028 11.8206 10.3998 10.8874C11.0593 9.95424 11.7012 9.51697 12.7681 9.10745" stroke="#111111" stroke-width="2"/>
<path d="M4.31368 12.365C4.76425 11.0377 5.68199 9.91941 6.89593 9.21853C8.10987 8.51766 9.5372 8.282 10.912 8.55546C12.2868 8.82892 13.5153 9.59285 14.3686 10.7049C15.222 11.817 15.6419 13.2013 15.5502 14.6001" stroke="#111111" stroke-width="2"/>
<path d="M15.8402 5.09798C16.9755 5.92015 17.7732 7.12702 18.0847 8.49371C18.3961 9.86041 18.2001 11.2937 17.5332 12.5266C16.8662 13.7595 15.7738 14.7079 14.4594 15.1951C13.1451 15.6823 11.0942 15.6112 9.78482 15.1109" stroke="#111111" stroke-width="2"/>
<path d="M18.2132 9.34242L17.216 9.41671L17.2533 9.91719L17.6768 10.1864L18.2132 9.34242ZM6.68997 9.34242L7.22637 10.1864L7.64992 9.91719L7.68721 9.41671L6.68997 9.34242ZM12.4516 19.3491L12.9138 18.4624L12.4516 18.2215L11.9894 18.4624L12.4516 19.3491ZM19.2105 9.26813C18.9493 5.76241 16.0235 3 12.4516 3V5C14.9687 5 17.032 6.94719 17.216 9.41671L19.2105 9.26813ZM12.4516 3C8.87968 3 5.9539 5.76241 5.69273 9.26813L7.68721 9.41671C7.87118 6.94719 9.93446 5 12.4516 5V3ZM6.15358 8.49846C4.26433 9.69919 3.00715 11.8135 3.00715 14.2222H5.00715C5.00715 12.5261 5.8902 11.0356 7.22637 10.1864L6.15358 8.49846ZM3.00715 14.2222C3.00715 17.9655 6.04166 21 9.78493 21V19C7.14623 19 5.00715 16.8609 5.00715 14.2222H3.00715ZM9.78493 21C10.9115 21 11.9767 20.7243 12.9138 20.2359L11.9894 18.4624C11.3309 18.8056 10.5821 19 9.78493 19V21ZM15.1183 19C14.3211 19 13.5723 18.8056 12.9138 18.4624L11.9894 20.2359C12.9265 20.7243 13.9917 21 15.1183 21V19ZM19.896 14.2222C19.896 16.8609 17.757 19 15.1183 19V21C18.8615 21 21.896 17.9655 21.896 14.2222H19.896ZM17.6768 10.1864C19.013 11.0356 19.896 12.5261 19.896 14.2222H21.896C21.896 11.8135 20.6389 9.69919 18.7496 8.49846L17.6768 10.1864Z" fill="#111111"/>
</svg>
