<svg width="16" height="16" viewBox="0 0 16 16" fill="none" xmlns="http://www.w3.org/2000/svg">
<path fill-rule="evenodd" clip-rule="evenodd" d="M10.9827 7.39807C10.9827 9.37782 9.37783 10.9827 7.39808 10.9827C5.41832 10.9827 3.81342 9.37782 3.81342 7.39807C3.81342 5.41831 5.41832 3.8134 7.39808 3.8134C9.37783 3.8134 10.9827 5.41831 10.9827 7.39807ZM10.585 11.9847C9.68124 12.6139 8.58274 12.9827 7.39808 12.9827C4.31375 12.9827 1.81342 10.4824 1.81342 7.39807C1.81342 4.31374 4.31375 1.8134 7.39808 1.8134C10.4824 1.8134 12.9827 4.31374 12.9827 7.39807C12.9827 8.58281 12.6138 9.68139 11.9846 10.5852C12.0228 10.6137 12.0594 10.6453 12.0941 10.68L14.4875 13.0734C14.878 13.464 14.878 14.0971 14.4875 14.4876C14.097 14.8782 13.4638 14.8782 13.0733 14.4876L10.6798 12.0942C10.6451 12.0595 10.6135 12.0229 10.585 11.9847Z" fill="#707070"/>
</svg>
