<svg width="24" height="24" viewBox="0 0 24 24" fill="none" xmlns="http://www.w3.org/2000/svg">
<g id="Icon/more">
<g id="Group 376">
<rect id="Rectangle 100" x="3" y="4" width="18" height="15" rx="5" stroke="#585858" stroke-width="2"/>
</g>
<path id="AI" d="M13.058 15.5C13.2253 15.5 13.3816 15.4163 13.4743 15.277C13.567 15.1376 13.5838 14.9612 13.5192 14.8068L10.5872 7.80683C10.5093 7.62097 10.3275 7.5 10.126 7.5H9.93198C9.73047 7.5 9.54865 7.62097 9.4708 7.80683L6.53882 14.8068C6.47417 14.9612 6.49102 15.1376 6.58372 15.277C6.67641 15.4163 6.83266 15.5 7 15.5H7.18325C7.38509 15.5 7.56713 15.3786 7.64477 15.1923L7.93331 14.5H9.93198H10H12.1534L12.4065 15.1755C12.4797 15.3707 12.6663 15.5 12.8747 15.5H13.058ZM9.93198 13.5H8.35102L10.0329 9.47757L11.744 13.5H10H9.93198ZM16.5 8C16.5 7.72386 16.2761 7.5 16 7.5H15.8275C15.5514 7.5 15.3275 7.72386 15.3275 8V15C15.3275 15.2761 15.5514 15.5 15.8275 15.5H16C16.2761 15.5 16.5 15.2761 16.5 15V8Z" fill="#585858" stroke="#585858" stroke-linejoin="round"/>
</g>
</svg>
