<svg width="31" height="30" viewBox="0 0 31 30" fill="none" xmlns="http://www.w3.org/2000/svg">
<path fill-rule="evenodd" clip-rule="evenodd" d="M23.0298 24.1834C24.164 23.6028 25.0375 22.5293 25.2928 21.2199L26.3449 15.8236L27.3971 10.4272C27.8198 8.25892 26.3874 6.26463 24.1976 5.97286L24.0532 5.95361C24.4934 6.59621 24.751 7.37381 24.751 8.21157V14.5536V20.8956C24.751 22.2579 24.0699 23.4611 23.0298 24.1834Z" fill="#B7B7B7"/>
<path fill-rule="evenodd" clip-rule="evenodd" d="M7.52881 4.77881C5.31967 4.77881 3.52881 6.56967 3.52881 8.77881V21.221C3.52881 23.4301 5.31967 25.221 7.52881 25.221H18.8919C21.101 25.221 22.8919 23.4301 22.8919 21.221V14.9999V8.77881C22.8919 6.56967 21.101 4.77881 18.8919 4.77881H7.52881ZM9.1885 12.263C9.1885 10.7024 10.8584 9.74948 12.1793 10.5166L12.1797 10.5168L15.5466 12.4771L16.9882 13.3275C17.4072 13.5747 17.6735 14.0364 17.6735 14.5451C17.6735 15.3363 17.0475 15.9482 16.3116 15.9482H15.2257C15.2117 15.9476 15.1977 15.9473 15.1836 15.9473H12.5624C12.3266 15.9473 12.1061 15.748 12.1061 15.4657C12.1061 15.1833 12.3266 14.9841 12.5624 14.9841H14.0135C14.5658 14.9841 15.0135 14.5363 15.0135 13.9841C15.0135 13.4318 14.5658 12.9841 14.0135 12.9841H12.5624C11.1896 12.9841 10.1061 14.1115 10.1061 15.4657C10.1061 16.8199 11.1896 17.9473 12.5624 17.9473H13.389C13.399 17.9477 13.409 17.948 13.4191 17.9481C13.4231 17.9481 13.427 17.9481 13.431 17.9481L16.3116 17.9482C18.1845 17.9482 19.6735 16.4082 19.6735 14.5451C19.6735 13.3399 19.0427 12.2174 18.0044 11.6049L16.5603 10.753L16.5603 10.753L16.5554 10.7501L13.1852 8.78797L13.1844 8.78752C10.5111 7.23426 7.1885 9.18228 7.1885 12.263V17.4848C7.1885 20.5655 10.5111 22.5135 13.1844 20.9603C13.662 20.6828 13.8242 20.0708 13.5467 19.5932C13.2693 19.1157 12.6572 18.9535 12.1797 19.231C10.8587 19.9985 9.1885 19.0455 9.1885 17.4848V12.263Z" fill="#B7B7B7"/>
</svg>
