<svg width="18" height="18" viewBox="0 0 18 18" fill="none" xmlns="http://www.w3.org/2000/svg">
<path d="M17.8758 4.61026C17.6066 3.12403 16.6357 0.409302 13.0786 0.409302C10.0192 0.409302 9.18698 3.19276 8.99934 4.70476C8.81169 3.19276 7.97952 0.409302 4.92007 0.409302C1.37111 0.409302 0.392081 3.12403 0.122849 4.61026C0.0331055 5.1343 -0.0403213 5.89889 0.024947 6.42294C0.122849 7.2133 0.024947 7.28203 0.840801 9.00021C2.66831 12.8403 8.99934 17.5911 8.99934 17.5911C8.99934 17.5911 15.3304 12.8403 17.1579 9.00021C17.9737 7.28203 17.8758 7.2133 17.9737 6.42294C18.039 5.89889 17.9737 5.12571 17.8758 4.61026Z" fill="#CFCFCF"/>
</svg>
