<svg width="24" height="24" viewBox="0 0 24 24" fill="none" xmlns="http://www.w3.org/2000/svg">
<path fill-rule="evenodd" clip-rule="evenodd" d="M18 6H6C4.89543 6 4 6.89543 4 8V17C4 18.1046 4.89543 19 6 19H18C19.1046 19 20 18.1046 20 17V8C20 6.89543 19.1046 6 18 6ZM6 4C3.79086 4 2 5.79086 2 8V17C2 19.2091 3.79086 21 6 21H18C20.2091 21 22 19.2091 22 17V8C22 5.79086 20.2091 4 18 4H6Z" fill="url(#paint0_linear_1396_7230)"/>
<path fill-rule="evenodd" clip-rule="evenodd" d="M20 11H4V9H20V11Z" fill="url(#paint1_linear_1396_7230)"/>
<path fill-rule="evenodd" clip-rule="evenodd" d="M8 2C8.55228 2 9 2.44772 9 3L9 7C9 7.55228 8.55228 8 8 8C7.44771 8 7 7.55228 7 7L7 3C7 2.44772 7.44772 2 8 2Z" fill="url(#paint2_linear_1396_7230)"/>
<path fill-rule="evenodd" clip-rule="evenodd" d="M16 2C16.5523 2 17 2.44772 17 3V7C17 7.55228 16.5523 8 16 8C15.4477 8 15 7.55228 15 7V3C15 2.44772 15.4477 2 16 2Z" fill="url(#paint3_linear_1396_7230)"/>
<defs>
<linearGradient id="paint0_linear_1396_7230" x1="2" y1="2" x2="20.975" y2="21.9737" gradientUnits="userSpaceOnUse">
<stop stop-color="#FF880A"/>
<stop offset="0.447917" stop-color="#FF5C00"/>
<stop offset="0.786458" stop-color="#FF5C00"/>
<stop offset="1" stop-color="#E45200"/>
</linearGradient>
<linearGradient id="paint1_linear_1396_7230" x1="2" y1="2" x2="20.975" y2="21.9737" gradientUnits="userSpaceOnUse">
<stop stop-color="#FF880A"/>
<stop offset="0.447917" stop-color="#FF5C00"/>
<stop offset="0.786458" stop-color="#FF5C00"/>
<stop offset="1" stop-color="#E45200"/>
</linearGradient>
<linearGradient id="paint2_linear_1396_7230" x1="2" y1="2" x2="20.975" y2="21.9737" gradientUnits="userSpaceOnUse">
<stop stop-color="#FF880A"/>
<stop offset="0.447917" stop-color="#FF5C00"/>
<stop offset="0.786458" stop-color="#FF5C00"/>
<stop offset="1" stop-color="#E45200"/>
</linearGradient>
<linearGradient id="paint3_linear_1396_7230" x1="2" y1="2" x2="20.975" y2="21.9737" gradientUnits="userSpaceOnUse">
<stop stop-color="#FF880A"/>
<stop offset="0.447917" stop-color="#FF5C00"/>
<stop offset="0.786458" stop-color="#FF5C00"/>
<stop offset="1" stop-color="#E45200"/>
</linearGradient>
</defs>
</svg>
