<svg width="24" height="24" viewBox="0 0 24 24" fill="none" xmlns="http://www.w3.org/2000/svg">
<path fill-rule="evenodd" clip-rule="evenodd" d="M2.04598 10.8723C2.04598 5.85738 6.64061 2 12.0268 2C17.406 2 22 5.85789 22 10.8723C22 15.8871 17.4054 19.7445 12.0192 19.7445C11.2115 19.7445 10.4276 19.6511 9.68455 19.4912C7.25262 20.4254 4.66785 21 3.00004 21C2.58432 21 2.21196 20.7428 2.06479 20.354C1.91763 19.9652 2.02637 19.5259 2.33791 19.2506C3.22266 18.4689 3.9258 17.5816 4.48795 16.6871C2.98299 15.1482 2.04598 13.1207 2.04598 10.8723ZM12.0268 4C7.49048 4 4.04598 7.2005 4.04598 10.8723C4.04598 12.7578 4.93027 14.4847 6.40567 15.7445C6.76729 16.0533 6.86147 16.574 6.6309 16.9899C6.32705 17.5379 5.97501 18.1001 5.56621 18.656C6.69897 18.4043 7.97923 18.0196 9.23751 17.5185C9.43045 17.4417 9.64251 17.4269 9.84427 17.4761C10.5406 17.6458 11.2724 17.7445 12.0192 17.7445C16.5555 17.7445 20 14.544 20 10.8723C20 7.19999 16.555 4 12.0268 4Z" fill="url(#paint0_linear_1396_7255)"/>
<path d="M13 7C13 7.55228 12.5523 8 12 8C11.4478 8 11 7.55228 11 7C11 6.44772 11.4478 6 12 6C12.5523 6 13 6.44772 13 7Z" fill="url(#paint1_linear_1396_7255)"/>
<path d="M11 10C11 9.44772 11.4478 9 12 9C12.5523 9 13 9.44772 13 10V15C13 15.5523 12.5523 16 12 16C11.4478 16 11 15.5523 11 15V10Z" fill="url(#paint2_linear_1396_7255)"/>
<defs>
<linearGradient id="paint0_linear_1396_7255" x1="2" y1="2" x2="20.975" y2="21.9738" gradientUnits="userSpaceOnUse">
<stop stop-color="#FF880A"/>
<stop offset="0.447917" stop-color="#FF5C00"/>
<stop offset="0.786458" stop-color="#FF5C00"/>
<stop offset="1" stop-color="#E45200"/>
</linearGradient>
<linearGradient id="paint1_linear_1396_7255" x1="2" y1="2" x2="20.975" y2="21.9738" gradientUnits="userSpaceOnUse">
<stop stop-color="#FF880A"/>
<stop offset="0.447917" stop-color="#FF5C00"/>
<stop offset="0.786458" stop-color="#FF5C00"/>
<stop offset="1" stop-color="#E45200"/>
</linearGradient>
<linearGradient id="paint2_linear_1396_7255" x1="2" y1="2" x2="20.975" y2="21.9738" gradientUnits="userSpaceOnUse">
<stop stop-color="#FF880A"/>
<stop offset="0.447917" stop-color="#FF5C00"/>
<stop offset="0.786458" stop-color="#FF5C00"/>
<stop offset="1" stop-color="#E45200"/>
</linearGradient>
</defs>
</svg>
