<svg width="24" height="24" viewBox="0 0 24 24" fill="none" xmlns="http://www.w3.org/2000/svg">
<rect x="3" y="4" width="18" height="16" rx="5" stroke="#111111" stroke-width="2"/>
<mask id="path-2-inside-1_472_2164" fill="white">
<path fill-rule="evenodd" clip-rule="evenodd" d="M14.681 9.83081C14.3545 9.83081 14.0626 9.62719 13.9498 9.32076L13.7087 8.66541C13.137 7.11153 10.9393 7.11153 10.3676 8.66541L10.1271 9.31904C10.0139 9.62651 9.72109 9.83081 9.39346 9.83081V9.83081C9.18633 9.83081 8.98766 9.7486 8.8411 9.60223L8.62076 9.38219C7.55367 8.31655 5.75052 9.2687 6.02881 10.7509L6.78597 14.7836C6.96353 15.7293 7.78938 16.4145 8.75163 16.4145H15.3217C16.284 16.4145 17.1098 15.7293 17.2874 14.7836L18.0446 10.7509C18.3228 9.2687 16.5197 8.31655 15.4526 9.38219L15.2315 9.603C15.0854 9.74888 14.8874 9.83081 14.681 9.83081V9.83081Z"/>
</mask>
<path d="M15.2315 9.603L13.8182 8.18783L15.2315 9.603ZM18.0446 10.7509L16.0789 10.3818L18.0446 10.7509ZM15.4526 9.38219L14.0394 7.96702L15.4526 9.38219ZM17.2874 14.7836L15.3217 14.4145L17.2874 14.7836ZM8.8411 9.60223L7.42784 11.0174L8.8411 9.60223ZM13.9498 9.32076L12.0729 10.0114L13.9498 9.32076ZM13.7087 8.66541L11.8317 9.35601L13.7087 8.66541ZM11.8317 9.35601L12.0729 10.0114L15.8268 8.63016L15.5857 7.97481L11.8317 9.35601ZM12.0041 10.0096L12.2446 9.35601L8.49058 7.97481L8.25009 8.62844L12.0041 10.0096ZM7.2075 10.7974L7.42784 11.0174L10.2544 8.18706L10.034 7.96702L7.2075 10.7974ZM8.75162 14.4145L7.99446 10.3818L4.06316 11.1199L4.82032 15.1527L8.75162 14.4145ZM15.3217 14.4145H8.75163V18.4145H15.3217V14.4145ZM16.0789 10.3818L15.3217 14.4145L19.253 15.1527L20.0102 11.1199L16.0789 10.3818ZM16.6448 11.0182L16.8659 10.7974L14.0394 7.96702L13.8182 8.18783L16.6448 11.0182ZM13.8182 8.18783C14.0472 7.95922 14.3575 7.83081 14.681 7.83081V11.8308C15.4174 11.8308 16.1237 11.5385 16.6448 11.0182L13.8182 8.18783ZM20.0102 11.1199C20.6513 7.70558 16.4975 5.51219 14.0394 7.96702L16.8659 10.7974C16.8141 10.8491 16.7118 10.9087 16.5831 10.9241C16.4706 10.9374 16.3812 10.9124 16.3192 10.8797C16.2572 10.8469 16.1861 10.7872 16.1337 10.6868C16.0738 10.5718 16.0654 10.4537 16.0789 10.3818L20.0102 11.1199ZM15.3217 18.4145C17.2462 18.4145 18.8979 17.0441 19.253 15.1527L15.3217 14.4145V14.4145V18.4145ZM4.82032 15.1527C5.17544 17.0441 6.82714 18.4145 8.75163 18.4145V14.4145H8.75162L4.82032 15.1527ZM10.034 7.96702C7.57585 5.51219 3.42209 7.70558 4.06316 11.1199L7.99446 10.3818C8.00796 10.4537 7.99957 10.5718 7.93963 10.6868C7.88723 10.7872 7.8162 10.8469 7.75416 10.8797C7.69213 10.9124 7.6028 10.9374 7.49026 10.9241C7.36155 10.9087 7.25927 10.8491 7.2075 10.7974L10.034 7.96702ZM9.39346 7.83081C9.71629 7.83081 10.0259 7.95894 10.2544 8.18706L7.42784 11.0174C7.9494 11.5383 8.65637 11.8308 9.39346 11.8308V7.83081ZM8.25009 8.62844C8.42641 8.14923 8.88285 7.83081 9.39346 7.83081V11.8308C10.5593 11.8308 11.6015 11.1038 12.0041 10.0096L8.25009 8.62844ZM12.0729 10.0114C12.475 11.1045 13.5162 11.8308 14.681 11.8308V7.83081C15.1927 7.83081 15.6501 8.14991 15.8268 8.63016L12.0729 10.0114ZM15.5857 7.97481C14.3716 4.67507 9.70466 4.67506 8.49058 7.97481L12.2446 9.35601C12.2384 9.3727 12.2084 9.42356 12.1493 9.46241C12.1012 9.49404 12.0615 9.5 12.0381 9.5C12.0148 9.5 11.9751 9.49404 11.927 9.46241C11.8679 9.42356 11.8379 9.3727 11.8317 9.35601L15.5857 7.97481Z" fill="#111111" mask="url(#path-2-inside-1_472_2164)"/>
</svg>
