<svg width="36" height="36" viewBox="0 0 36 36" fill="none" xmlns="http://www.w3.org/2000/svg">
<g clip-path="url(#clip0_357_2742)">
<g filter="url(#filter0_d_357_2742)">
<path d="M28.8482 12.1345C28.5192 10.318 27.3326 7 22.985 7C19.2456 7 18.2285 10.402 17.9992 12.25C17.7698 10.402 16.7527 7 13.0134 7C8.6758 7 7.47921 10.318 7.15015 12.1345C7.04046 12.775 6.95072 13.7095 7.03049 14.35C7.15015 15.316 7.03049 15.4 8.02765 17.5C10.2613 22.1935 17.9992 28 17.9992 28C17.9992 28 25.7371 22.1935 27.9707 17.5C28.9679 15.4 28.8482 15.316 28.9679 14.35C29.0477 13.7095 28.9679 12.7645 28.8482 12.1345Z" fill="white"/>
</g>
</g>
<defs>
<filter id="filter0_d_357_2742" x="-5" y="-1" width="46" height="45" filterUnits="userSpaceOnUse" color-interpolation-filters="sRGB">
<feFlood flood-opacity="0" result="BackgroundImageFix"/>
<feColorMatrix in="SourceAlpha" type="matrix" values="0 0 0 0 0 0 0 0 0 0 0 0 0 0 0 0 0 0 127 0" result="hardAlpha"/>
<feOffset dy="4"/>
<feGaussianBlur stdDeviation="6"/>
<feComposite in2="hardAlpha" operator="out"/>
<feColorMatrix type="matrix" values="0 0 0 0 0.0776389 0 0 0 0 0.139392 0 0 0 0 0.358333 0 0 0 0.18 0"/>
<feBlend mode="normal" in2="BackgroundImageFix" result="effect1_dropShadow_357_2742"/>
<feBlend mode="normal" in="SourceGraphic" in2="effect1_dropShadow_357_2742" result="shape"/>
</filter>
<clipPath id="clip0_357_2742">
<rect width="36" height="36" fill="white"/>
</clipPath>
</defs>
</svg>
