<svg width="14" height="19" viewBox="0 0 14 19" fill="none" xmlns="http://www.w3.org/2000/svg">
<g id="Group 499">
<path id="Union" fill-rule="evenodd" clip-rule="evenodd" d="M2.99987 0C1.34293 0 0 1.34323 0 3V16C0 17.6569 1.34315 19 3 19H11C12.6569 19 14 17.6569 14 16C14 15.6094 13.9254 15.2363 13.7895 14.894C13.4613 15.5498 12.7832 16 12 16C12 16.5523 11.5523 17 11 17H3C2.44772 17 2 16.5523 2 16C2 15.9718 2.00134 15.9412 2.0041 15.9088C2.05016 15.3993 2.47846 15 3 15H3.00517H3.01343H3.02174H3.03012H3.03856H3.04706H3.05561H3.06423H3.07291H3.08165H3.09044H3.0993H3.10822H3.11719H3.12622H3.13531H3.14446H3.15367H3.16294H3.17226H3.18164H3.19108H3.20058H3.21013H3.21974H3.22941H3.23914H3.24892H3.25875H3.26865H3.2786H3.2886H3.29866H3.30878H3.31895H3.32918H3.33946H3.3498H3.36019H3.37063H3.38113H3.39169H3.40229H3.41296H3.42367H3.43444H3.44526H3.45614H3.46706H3.47804H3.48908H3.50016H3.5113H3.52249H3.53373H3.54503H3.55637H3.56777H3.57921H3.59071H3.60226H3.61386H3.62551H3.63721H3.64896H3.66077H3.67262H3.68452H3.69647H3.70846H3.72051H3.73261H3.73333H3.74476H3.75695H3.76919H3.78148H3.79382H3.80621H3.81865H3.83113H3.84366H3.85623H3.86886H3.88153H3.89425H3.90701H3.91982H3.93268H3.94558H3.95853H3.97152H3.98456H3.99765H4.01078H4.02396H4.03718H4.05044H4.06375H4.0771H4.0905H4.10394H4.11743H4.13096H4.14453H4.15814H4.1718H4.1855H4.19925H4.21304H4.22687H4.24074H4.25465H4.26861H4.2826H4.29664H4.31072H4.32485H4.33901H4.35321H4.36745H4.38174H4.39606H4.41043H4.42483H4.43928H4.45376H4.46829H4.48285H4.49745H4.5121H4.52678H4.54149H4.55625H4.57105H4.58588H4.60075H4.61566H4.63061H4.64559H4.66061H4.67567H4.69077H4.7059H4.72107H4.73628H4.75152H4.76679H4.78211H4.79746H4.81284H4.82826H4.84372H4.85921H4.87473H4.89029H4.90589H4.92151H4.93718H4.95287H4.9686H4.98437H5.00017H5.016H5.03186H5.04776H5.06369H5.07965H5.09564H5.11167H5.12773H5.14382H5.15994H5.1761H5.19228H5.2085H5.22475H5.24103H5.25734H5.27368H5.29005H5.30645H5.32288H5.33934H5.35583H5.37235H5.3889H5.40548H5.42208H5.43872H5.45538H5.47208H5.4888H5.50555H5.52232H5.53913H5.55596H5.57282H5.58971H5.60663H5.62357H5.64053H5.65753H5.67455H5.6916H5.70867H5.72577H5.7429H5.76005H5.77722H5.79443H5.81165H5.8289H5.84618H5.86348H5.8808H5.89815H5.91553H5.93292H5.95034H5.96779H5.98525H6.00275H6.02026H6.03779H6.05535H6.07293H6.09054H6.10816H6.12581H6.14348H6.16117H6.17888H6.19662H6.21437H6.23215H6.24994H6.26776H6.2856H6.30346H6.32133H6.33923H6.35715H6.37508H6.39304H6.41102H6.42901H6.44702H6.46505H6.4831H6.50117H6.51926H6.53736H6.55549H6.57363H6.59178H6.60996H6.62815H6.64636H6.66459H6.68283H6.70109H6.71936H6.73765H6.75596H6.77428H6.79262H6.81097H6.82934H6.84773H6.86613H6.88454H6.90297H6.92141H6.93987H6.95834H6.97682H6.99532H7.01383H7.03236H7.0509H7.06945H7.08801H7.10659H7.12518H7.14378H7.16239H7.18102H7.19966H7.2183H7.23696H7.25564H7.27432H7.29301H7.31172H7.33043H7.34916H7.36789H7.38664H7.40539H7.42416H7.44293H7.46172H7.48051H7.49932H7.51813H7.53695H7.55578H7.57461H7.59346H7.61231H7.63117H7.65004H7.66892H7.6878H7.70669H7.72559H7.74449H7.7634H7.78232H7.80124H7.82017H7.83911H7.85805H7.877H7.89595H7.91491H7.93387H7.95284H7.97181H7.99079H8.00977H8.02876H8.04775H8.06674H8.08574H8.10474H8.12374H8.14275H8.16176H8.18077H8.19979H8.21881H8.23783H8.25685H8.27588H8.2949H8.31393H8.33296H8.35199H8.37103H8.39006H8.40909H8.42813H8.44716H8.4662H8.48523H8.50427H8.5233H8.54234H8.56137H8.5804H8.59944H8.61847H8.6375H8.65653H8.67555H8.69458H8.7136H8.73262H8.75164H8.77066H8.78967H8.80868H8.82769H8.84669H8.86569H8.88469H8.90368H8.92267H8.94166H8.96064H8.97962H8.99859H9.01756H9.03652H9.05548H9.07443H9.09338H9.11232H9.13126H9.15019H9.16911H9.18803H9.20694H9.22585H9.24475H9.26364H9.28252H9.3014H9.32027H9.33913H9.35798H9.37683H9.39566H9.41449H9.43331H9.45213H9.47093H9.48972H9.50851H9.52728H9.54605H9.56481H9.58355H9.60229H9.62101H9.63973H9.65843H9.67713H9.69581H9.71448H9.73314H9.75179H9.77043H9.78906H9.80767H9.82627H9.84486H9.86344H9.88201H9.90056H9.9191H9.93762H9.95614H9.97463H9.99312H10.0116H10.03H10.0485H10.0669H10.0853H10.1037H10.1221H10.1405H10.1588H10.1772H10.1955H10.2138H10.2321H10.2504H10.2686H10.2869H10.3051H10.3233H10.3415H10.3597H10.3778H10.396H10.4141H10.4322H10.4503H10.4684H10.4864H10.5045H10.5225H10.5405H10.5584H10.5764H10.5943H10.6123H10.6302H10.648H10.6659H10.6837H10.7015H10.7193H10.7371H10.7549H10.7726H10.7903H10.808H10.8257H10.8433H10.861H10.8786H10.8962H10.9137H10.9312H10.9488H10.9663H10.9837H11.0012C12.6588 15 14 13.6561 14 12V3C14 1.34479 12.661 0 11.0025 0H10.991H10.9794H10.9678H10.9561H10.9445H10.9328H10.9211H10.9093H10.8976H10.8858H10.874H10.8621H10.8502H10.8383H10.8264H10.8145H10.8025H10.7905H10.7785H10.7664H10.7543H10.7422H10.7301H10.718H10.7058H10.6936H10.6814H10.6691H10.6568H10.6445H10.6322H10.6199H10.6075H10.5951H10.5827H10.5702H10.5578H10.5453H10.5327H10.5202H10.5076H10.495H10.4824H10.4698H10.4571H10.4444H10.4317H10.419H10.4062H10.3935H10.3806H10.3678H10.355H10.3421H10.3292H10.3163H10.3033H10.2904H10.2774H10.2644H10.2513H10.2383H10.2252H10.2121H10.199H10.1858H10.1726H10.1594H10.1462H10.133H10.1197H10.1064H10.0931H10.0798H10.0665H10.0531H10.0397H10.0263H10.0128H9.99939H9.98591H9.97241H9.95889H9.94534H9.93178H9.91819H9.90459H9.89096H9.87731H9.86364H9.84995H9.83623H9.8225H9.80875H9.79497H9.78118H9.76736H9.75352H9.73967H9.72579H9.71189H9.69797H9.68404H9.67008H9.6561H9.6421H9.62808H9.61404H9.59999H9.58591H9.57181H9.55769H9.54356H9.5294H9.51522H9.50103H9.48681H9.47258H9.45833H9.44405H9.42976H9.41545H9.40112H9.38677H9.37241H9.35802H9.34362H9.32919H9.31475H9.30029H9.28581H9.27131H9.2568H9.24226H9.22771H9.21314H9.19855H9.18395H9.16932H9.15468H9.14002H9.12534H9.11064H9.09593H9.0812H9.06645H9.05168H9.0369H9.0221H9.00728H8.99244H8.97759H8.96272H8.94783H8.93293H8.91801H8.90307H8.88812H8.87315H8.85816H8.84315H8.82813H8.81309H8.79804H8.78297H8.76788H8.75278H8.73766H8.72252H8.70737H8.69221H8.67702H8.66182H8.64661H8.63138H8.61613H8.60087H8.58559H8.5703H8.55499H8.53966H8.52432H8.50897H8.4936H8.47822H8.46281H8.4474H8.43197H8.41652H8.40106H8.38559H8.3701H8.3546H8.33908H8.32355H8.308H8.29244H8.27686H8.26127H8.24566H8.23005H8.21441H8.19877H8.18311H8.16743H8.15174H8.13604H8.12032H8.10459H8.08885H8.07309H8.05732H8.04154H8.02574H8.00993H7.99411H7.97827H7.96242H7.94656H7.93068H7.9148H7.89889H7.88298H7.86705H7.85111H7.83516H7.8192H7.80322H7.78723H7.77123H7.75521H7.73919H7.72315H7.7071H7.69103H7.67496H7.65887H7.64277H7.62666H7.61054H7.59441H7.57826H7.5621H7.54594H7.52976H7.51357H7.49736H7.48115H7.46492H7.44869H7.43244H7.41618H7.39991H7.38363H7.36734H7.35104H7.33473H7.31841H7.30207H7.28573H7.26938H7.25301H7.23664H7.22025H7.20386H7.18745H7.17104H7.15461H7.13818H7.12173H7.10527H7.08881H7.07234H7.05585H7.03936H7.02285H7.00634H6.98982H6.97329H6.95675H6.9402H6.92364H6.90707H6.8905H6.87391H6.85731H6.84071H6.8241H6.80748H6.79085H6.77421H6.75756H6.74091H6.72424H6.70757H6.69089H6.6742H6.65751H6.6408H6.62409H6.60737H6.59064H6.57391H6.55716H6.54041H6.52365H6.50688H6.49011H6.47333H6.45654H6.43974H6.42294H6.40613H6.38931H6.37248H6.35565H6.33881H6.32197H6.30511H6.28825H6.27139H6.25451H6.23763H6.22075H6.20385H6.18695H6.17005H6.15314H6.13622H6.1193H6.10237H6.08543H6.06849H6.05154H6.03458H6.01762H6.00066H5.98369H5.96671H5.94973H5.93274H5.91575H5.89875H5.88175H5.86474H5.84772H5.8307H5.81368H5.79665H5.77962H5.76258H5.74553H5.72848H5.71143H5.69437H5.67731H5.66024H5.64317H5.6261H5.60902H5.59193H5.57484H5.55775H5.54065H5.52355H5.50645H5.48934H5.47223H5.45511H5.43799H5.42087H5.40374H5.38661H5.36948H5.35234H5.3352H5.31806H5.30091H5.28376H5.26661H5.24945H5.23229H5.21513H5.19797H5.1808H5.16363H5.14646H5.12928H5.11211H5.09493H5.07774H5.06056H5.04337H5.02618H5.00899H4.9918H4.9746H4.9574H4.94021H4.923H4.9058H4.8886H4.87139H4.85418H4.83697H4.81976H4.80255H4.78534H4.76812H4.75091H4.73369H4.71647H4.69925H4.68203H4.66481H4.64759H4.63037H4.61314H4.59592H4.5787H4.56147H4.54425H4.52702H4.50979H4.49257H4.47534H4.45811H4.44089H4.42366H4.40643H4.38921H4.37198H4.35475H4.33753H4.3203H4.30308H4.28585H4.26863H4.2514H4.23418H4.21696H4.19974H4.18252H4.1653H4.14808H4.13086H4.11364H4.09643H4.07921H4.062H4.04479H4.02758H4.01037H3.99316H3.97596H3.95875H3.94155H3.92435H3.90715H3.88995H3.87276H3.85557H3.83838H3.82119H3.804H3.78682H3.76963H3.75245H3.73528H3.7181H3.70093H3.68376H3.66659H3.64943H3.63227H3.61511H3.59796H3.5808H3.56366H3.54651H3.52937H3.51223H3.49509H3.47796H3.46083H3.4437H3.42658H3.40946H3.39235H3.37524H3.35813H3.34103H3.32393H3.30683H3.28974H3.27265H3.25557H3.23849H3.22142H3.20435H3.18728H3.17022H3.15316H3.13611H3.11906H3.10202H3.08498H3.06795H3.05092H3.0339H3.01688H2.99987ZM3.73333 13H3.74476H3.75695H3.76919H3.78148H3.79382H3.80621H3.81865H3.83113H3.84366H3.85623H3.86886H3.88153H3.89425H3.90701H3.91982H3.93268H3.94558H3.95853H3.97152H3.98456H3.99765H4.01078H4.02396H4.03718H4.05044H4.06375H4.0771H4.0905H4.10394H4.11743H4.13096H4.14453H4.15814H4.1718H4.1855H4.19925H4.21304H4.22687H4.24074H4.25465H4.26861H4.2826H4.29664H4.31072H4.32485H4.33901H4.35321H4.36745H4.38174H4.39606H4.41043H4.42483H4.43928H4.45376H4.46829H4.48285H4.49745H4.5121H4.52678H4.54149H4.55625H4.57105H4.58588H4.60075H4.61566H4.63061H4.64559H4.66061H4.67567H4.69077H4.7059H4.72107H4.73628H4.75152H4.76679H4.78211H4.79746H4.81284H4.82826H4.84372H4.85921H4.87473H4.89029H4.90589H4.92151H4.93718H4.95287H4.9686H4.98437H5.00017H5.016H5.03186H5.04776H5.06369H5.07965H5.09564H5.11167H5.12773H5.14382H5.15994H5.1761H5.19228H5.2085H5.22475H5.24103H5.25734H5.27368H5.29005H5.30645H5.32288H5.33934H5.35583H5.37235H5.3889H5.40548H5.42208H5.43872H5.45538H5.47208H5.4888H5.50555H5.52232H5.53913H5.55596H5.57282H5.58971H5.60663H5.62357H5.64053H5.65753H5.67455H5.6916H5.70867H5.72577H5.7429H5.76005H5.77722H5.79443H5.81165H5.8289H5.84618H5.86348H5.8808H5.89815H5.91553H5.93292H5.95034H5.96779H5.98525H6.00275H6.02026H6.03779H6.05535H6.07293H6.09054H6.10816H6.12581H6.14348H6.16117H6.17888H6.19662H6.21437H6.23215H6.24994H6.26776H6.2856H6.30346H6.32133H6.33923H6.35715H6.37508H6.39304H6.41102H6.42901H6.44702H6.46505H6.4831H6.50117H6.51926H6.53736H6.55549H6.57363H6.59178H6.60996H6.62815H6.64636H6.66459H6.68283H6.70109H6.71936H6.73765H6.75596H6.77428H6.79262H6.81097H6.82934H6.84773H6.86613H6.88454H6.90297H6.92141H6.93987H6.95834H6.97682H6.99532H7.01383H7.03236H7.0509H7.06945H7.08801H7.10659H7.12518H7.14378H7.16239H7.18102H7.19966H7.2183H7.23696H7.25564H7.27432H7.29301H7.31172H7.33043H7.34916H7.36789H7.38664H7.40539H7.42416H7.44293H7.46172H7.48051H7.49932H7.51813H7.53695H7.55578H7.57461H7.59346H7.61231H7.63117H7.65004H7.66892H7.6878H7.70669H7.72559H7.74449H7.7634H7.78232H7.80124H7.82017H7.83911H7.85805H7.877H7.89595H7.91491H7.93387H7.95284H7.97181H7.99079H8.00977H8.02876H8.04775H8.06674H8.08574H8.10474H8.12374H8.14275H8.16176H8.18077H8.19979H8.21881H8.23783H8.25685H8.27588H8.2949H8.31393H8.33296H8.35199H8.37103H8.39006H8.40909H8.42813H8.44716H8.4662H8.48523H8.50427H8.5233H8.54234H8.56137H8.5804H8.59944H8.61847H8.6375H8.65653H8.67555H8.69458H8.7136H8.73262H8.75164H8.77066H8.78967H8.80868H8.82769H8.84669H8.86569H8.88469H8.90368H8.92267H8.94166H8.96064H8.97962H8.99859H9.01756H9.03652H9.05548H9.07443H9.09338H9.11232H9.13126H9.15019H9.16911H9.18803H9.20694H9.22585H9.24475H9.26364H9.28252H9.3014H9.32027H9.33913H9.35798H9.37683H9.39566H9.41449H9.43331H9.45213H9.47093H9.48972H9.50851H9.52728H9.54605H9.56481H9.58355H9.60229H9.62101H9.63973H9.65843H9.67713H9.69581H9.71448H9.73314H9.75179H9.77043H9.78906H9.80767H9.82627H9.84486H9.86344H9.88201H9.90056H9.9191H9.93762H9.95614H9.97463H9.99312H10.0116H10.03H10.0485H10.0669H10.0853H10.1037H10.1221H10.1405H10.1588H10.1772H10.1955H10.2138H10.2321H10.2504H10.2686H10.2869H10.3051H10.3233H10.3415H10.3597H10.3778H10.396H10.4141H10.4322H10.4503H10.4684H10.4864H10.5045H10.5225H10.5405H10.5584H10.5764H10.5943H10.6123H10.6302H10.648H10.6659H10.6837H10.7015H10.7193H10.7371H10.7549H10.7726H10.7903H10.808H10.8257H10.8433H10.861H10.8786H10.8962H10.9137H10.9312H10.9488H10.9663H10.9837H11.0012C11.5527 13 12 12.553 12 12V3C12 2.44607 11.5532 2 11.0025 2H10.991H10.9794H10.9678H10.9561H10.9445H10.9328H10.9211H10.9093H10.8976H10.8858H10.874H10.8621H10.8502H10.8383H10.8264H10.8145H10.8025H10.7905H10.7785H10.7664H10.7543H10.7422H10.7301H10.718H10.7058H10.6936H10.6814H10.6691H10.6568H10.6445H10.6322H10.6199H10.6075H10.5951H10.5827H10.5702H10.5578H10.5453H10.5327H10.5202H10.5076H10.495H10.4824H10.4698H10.4571H10.4444H10.4317H10.419H10.4062H10.3935H10.3806H10.3678H10.355H10.3421H10.3292H10.3163H10.3033H10.2904H10.2774H10.2644H10.2513H10.2383H10.2252H10.2121H10.199H10.1858H10.1726H10.1594H10.1462H10.133H10.1197H10.1064H10.0931H10.0798H10.0665H10.0531H10.0397H10.0263H10.0128H9.99939H9.98591H9.97241H9.95889H9.94534H9.93178H9.91819H9.90459H9.89096H9.87731H9.86364H9.84995H9.83623H9.8225H9.80875H9.79497H9.78118H9.76736H9.75352H9.73967H9.72579H9.71189H9.69797H9.68404H9.67008H9.6561H9.6421H9.62808H9.61404H9.59999H9.58591H9.57181H9.55769H9.54356H9.5294H9.51522H9.50103H9.48681H9.47258H9.45833H9.44405H9.42976H9.41545H9.40112H9.38677H9.37241H9.35802H9.34362H9.32919H9.31475H9.30029H9.28581H9.27131H9.2568H9.24226H9.22771H9.21314H9.19855H9.18395H9.16932H9.15468H9.14002H9.12534H9.11064H9.09593H9.0812H9.06645H9.05168H9.0369H9.0221H9.00728H8.99244H8.97759H8.96272H8.94783H8.93293H8.91801H8.90307H8.88812H8.87315H8.85816H8.84315H8.82813H8.81309H8.79804H8.78297H8.76788H8.75278H8.73766H8.72252H8.70737H8.69221H8.67702H8.66182H8.64661H8.63138H8.61613H8.60087H8.58559H8.5703H8.55499H8.53966H8.52432H8.50897H8.4936H8.47822H8.46281H8.4474H8.43197H8.41652H8.40106H8.38559H8.3701H8.3546H8.33908H8.32355H8.308H8.29244H8.27686H8.26127H8.24566H8.23005H8.21441H8.19877H8.18311H8.16743H8.15174H8.13604H8.12032H8.10459H8.08885H8.07309H8.05732H8.04154H8.02574H8.00993H7.99411H7.97827H7.96242H7.94656H7.93068H7.9148H7.89889H7.88298H7.86705H7.85111H7.83516H7.8192H7.80322H7.78723H7.77123H7.75521H7.73919H7.72315H7.7071H7.69103H7.67496H7.65887H7.64277H7.62666H7.61054H7.59441H7.57826H7.5621H7.54594H7.52976H7.51357H7.49736H7.48115H7.46492H7.44869H7.43244H7.41618H7.39991H7.38363H7.36734H7.35104H7.33473H7.31841H7.30207H7.28573H7.26938H7.25301H7.23664H7.22025H7.20386H7.18745H7.17104H7.15461H7.13818H7.12173H7.10527H7.08881H7.07234H7.05585H7.03936H7.02285H7.00634H6.98982H6.97329H6.95675H6.9402H6.92364H6.90707H6.8905H6.87391H6.85731H6.84071H6.8241H6.80748H6.79085H6.77421H6.75756H6.74091H6.72424H6.70757H6.69089H6.6742H6.65751H6.6408H6.62409H6.60737H6.59064H6.57391H6.55716H6.54041H6.52365H6.50688H6.49011H6.47333H6.45654H6.43974H6.42294H6.40613H6.38931H6.37248H6.35565H6.33881H6.32197H6.30511H6.28825H6.27139H6.25451H6.23763H6.22075H6.20385H6.18695H6.17005H6.15314H6.13622H6.1193H6.10237H6.08543H6.06849H6.05154H6.03458H6.01762H6.00066H5.98369H5.96671H5.94973H5.93274H5.91575H5.89875H5.88175H5.86474H5.84772H5.8307H5.81368H5.79665H5.77962H5.76258H5.74553H5.72848H5.71143H5.69437H5.67731H5.66024H5.64317H5.6261H5.60902H5.59193H5.57484H5.55775H5.54065H5.52355H5.50645H5.48934H5.47223H5.45511H5.43799H5.42087H5.40374H5.38661H5.36948H5.35234H5.3352H5.31806H5.30091H5.28376H5.26661H5.24945H5.23229H5.21513H5.19797H5.1808H5.16363H5.14646H5.12928H5.11211H5.09493H5.07774H5.06056H5.04337H5.02618H5.00899H4.9918H4.9746H4.9574H4.94021H4.923H4.9058H4.8886H4.87139H4.85418H4.83697H4.81976H4.80255H4.78534H4.76812H4.75091H4.73369H4.71647H4.69925H4.68203H4.66481H4.64759H4.63037H4.61314H4.59592H4.5787H4.56147H4.54425H4.52702H4.50979H4.49257H4.47534H4.45811H4.44089H4.42366H4.40643H4.38921H4.37198H4.35475H4.33753H4.3203H4.30308H4.28585H4.26863H4.2514H4.23418H4.21696H4.19974H4.18252H4.1653H4.14808H4.13086H4.11364H4.09643H4.07921H4.062H4.04479H4.02758H4.01037H3.99316H3.97596H3.95875H3.94155H3.92435H3.90715H3.88995H3.87276H3.85557H3.83838H3.82119H3.804H3.78682H3.76963H3.75245H3.73528H3.7181H3.70093H3.68376H3.66659H3.64943H3.63227H3.61511H3.59796H3.5808H3.56366H3.54651H3.52937H3.51223H3.49509H3.47796H3.46083H3.4437H3.42658H3.40946H3.39235H3.37524H3.35813H3.34103H3.32393H3.30683H3.28974H3.27265H3.25557H3.23849H3.22142H3.20435H3.18728H3.17022H3.15316H3.13611H3.11906H3.10202H3.08498H3.06795H3.05092H3.0339H3.01688H2.99987C2.44767 2 2 2.44763 2 3V13.1153C2.25589 13.0412 2.53779 13 2.84615 13H2.85309H2.8601H2.86716H2.8743H2.88149H2.88875H2.89607H2.90346H2.91091H2.91842H2.926H2.93363H2.94134H2.9491H2.95692H2.96481H2.97276H2.98077H2.98884H2.99698H3H3.00517H3.01343H3.02174H3.03012H3.03856H3.04706H3.05561H3.06423H3.07291H3.08165H3.09044H3.0993H3.10822H3.11719H3.12622H3.13531H3.14446H3.15367H3.16294H3.17226H3.18164H3.19108H3.20058H3.21013H3.21974H3.22941H3.23914H3.24892H3.25875H3.26865H3.2786H3.2886H3.29866H3.30878H3.31895H3.32918H3.33946H3.3498H3.36019H3.37063H3.38113H3.39169H3.40229H3.41296H3.42367H3.43444H3.44526H3.45614H3.46706H3.47804H3.48908H3.50016H3.5113H3.52249H3.53373H3.54503H3.55637H3.56777H3.57921H3.59071H3.60226H3.61386H3.62551H3.63721H3.64896H3.66077H3.67262H3.68452H3.69647H3.70846H3.72051H3.73261H3.73333Z" fill="#111111"/>
<circle id="Ellipse 161" cx="7" cy="5" r="1" fill="#111111"/>
<rect id="Rectangle 280" x="6" y="7" width="2" height="4" rx="1" fill="#111111"/>
</g>
</svg>
