<svg width="31" height="30" viewBox="0 0 31 30" fill="none" xmlns="http://www.w3.org/2000/svg">
<path fill-rule="evenodd" clip-rule="evenodd" d="M13.3498 7.26062C12.5422 7.53823 12 8.29801 12 9.15199V12.5996V14.5996V18.9364C11.5454 18.7205 11.0368 18.5996 10.5 18.5996C8.567 18.5996 7 20.1666 7 22.0996C7 24.0326 8.567 25.5996 10.5 25.5996C12.433 25.5996 14 24.0326 14 22.0996C14 21.9299 13.9879 21.7629 13.9646 21.5996H14V13.9121L22 11.1621V15.9364C21.5454 15.7205 21.0368 15.5996 20.5 15.5996C18.567 15.5996 17 17.1666 17 19.0996C17 21.0326 18.567 22.5996 20.5 22.5996C22.2632 22.5996 23.7219 21.2958 23.9646 19.5996H24V19.0996V10.4746V9.59963V6.40199C24 5.029 22.6483 4.06429 21.3498 4.51062L13.3498 7.26062Z" fill="#FF5C00"/>
</svg>
