<svg width="20" height="19" viewBox="0 0 20 19" fill="none" xmlns="http://www.w3.org/2000/svg">
<g id="Group 481">
<g id="Union">
<mask id="path-1-inside-1_3685_5061" fill="white">
<path fill-rule="evenodd" clip-rule="evenodd" d="M18.2975 6.42432C19.2762 6.57153 20 7.41239 20 8.40207L20 10.5995C20 11.5892 19.2762 12.43 18.2975 12.5772L16.7358 12.8121C16.5859 13.1182 16.4159 13.4126 16.2274 13.6935L16.8066 15.1707C17.1682 16.0928 16.8017 17.142 15.9449 17.6381L14.055 18.7323C13.1982 19.2283 12.1089 19.022 11.4933 18.2469L10.5068 17.0049C10.3393 17.0161 10.1703 17.0218 10 17.0218C9.8295 17.0218 9.66033 17.0161 9.49266 17.0048L8.50659 18.2467C7.89107 19.0218 6.80165 19.2283 5.94474 18.7322L4.05519 17.6382C3.19828 17.1421 2.83187 16.0927 3.19354 15.1706L3.77278 13.6938C3.58426 13.4128 3.41415 13.1183 3.26418 12.8122L1.70251 12.5772C0.723834 12.43 -5.06579e-07 11.5892 -4.63319e-07 10.5995L-3.67266e-07 8.40207C-3.24006e-07 7.41239 0.723835 6.57153 1.70251 6.42432L3.26418 6.18941C3.41407 5.88338 3.58409 5.58905 3.77251 5.30817L3.1933 3.83082C2.83179 2.90875 3.19823 1.85957 4.05505 1.3635L5.94502 0.269272C6.80184 -0.226796 7.89114 -0.0204425 8.5067 0.754549L9.4933 1.99668C9.66075 1.98548 9.82971 1.97979 10 1.97979C10.1705 1.97979 10.3396 1.98549 10.5072 1.99672L11.4934 0.75456C12.1089 -0.0206814 13.1984 -0.227185 14.0554 0.268962L15.9447 1.36283C16.8017 1.85898 17.1681 2.90839 16.8063 3.83054L16.2269 5.30737C16.4156 5.58849 16.5858 5.88309 16.7358 6.18941L18.2975 6.42432Z"/>
</mask>
<path d="M18.2975 6.42432L18 8.40207L18 8.40207L18.2975 6.42432ZM18.2975 12.5772L18.595 14.555L18.595 14.555L18.2975 12.5772ZM16.7358 12.8121L16.4383 10.8344C15.7888 10.9321 15.2286 11.3425 14.9397 11.9324L16.7358 12.8121ZM16.2274 13.6935L14.5665 12.5793C14.2012 13.1239 14.126 13.813 14.3654 14.4236L16.2274 13.6935ZM16.8066 15.1707L14.9446 15.9008L16.8066 15.1707ZM15.9449 17.6381L16.947 19.3689L16.947 19.3689L15.9449 17.6381ZM14.055 18.7323L15.0571 20.4631L15.0571 20.4631L14.055 18.7323ZM11.4933 18.2469L9.92717 19.4908L9.92717 19.4908L11.4933 18.2469ZM10.5068 17.0049L12.073 15.761C11.6643 15.2464 11.0289 14.9655 10.3733 15.0093L10.5068 17.0049ZM9.49266 17.0048L9.62633 15.0093C8.97057 14.9654 8.33509 15.2464 7.92639 15.7611L9.49266 17.0048ZM8.50659 18.2467L6.94031 17.003L6.94031 17.003L8.50659 18.2467ZM5.94474 18.7322L4.94264 20.463L4.94264 20.463L5.94474 18.7322ZM4.05519 17.6382L5.05729 15.9073L5.05729 15.9073L4.05519 17.6382ZM3.19354 15.1706L1.33164 14.4403L1.33164 14.4403L3.19354 15.1706ZM3.77278 13.6938L5.63469 14.4241C5.87418 13.8134 5.79906 13.1242 5.43363 12.5795L3.77278 13.6938ZM3.26418 12.8122L5.06031 11.9324C4.77138 11.3425 4.21122 10.9321 3.56168 10.8344L3.26418 12.8122ZM1.70251 12.5772L2 10.5995L2 10.5995L1.70251 12.5772ZM1.70251 6.42432L2 8.40207L1.70251 6.42432ZM3.26418 6.18941L3.56167 8.16716C4.21122 8.06946 4.77139 7.65903 5.06031 7.06913L3.26418 6.18941ZM3.77251 5.30817L5.43343 6.42234C5.79874 5.87775 5.87388 5.18867 5.63452 4.57815L3.77251 5.30817ZM3.1933 3.83082L1.3313 4.56084L1.3313 4.56084L3.1933 3.83082ZM4.05505 1.3635L3.05296 -0.367339L3.05295 -0.367339L4.05505 1.3635ZM5.94502 0.269272L6.94712 2.00011L6.94712 2.00011L5.94502 0.269272ZM8.5067 0.754549L6.9406 1.99847L6.9406 1.99847L8.5067 0.754549ZM9.4933 1.99668L7.9272 3.2406C8.33587 3.75512 8.97119 4.03608 9.6268 3.99222L9.4933 1.99668ZM10.5072 1.99672L10.3736 3.99225C11.0294 4.03617 11.6649 3.75507 12.0736 3.24031L10.5072 1.99672ZM11.4934 0.75456L9.92708 -0.489036L9.92708 -0.489036L11.4934 0.75456ZM14.0554 0.268962L15.0575 -1.46188L15.0575 -1.46188L14.0554 0.268962ZM15.9447 1.36283L16.9468 -0.368008L16.9468 -0.368008L15.9447 1.36283ZM16.8063 3.83054L18.6682 4.56094L18.6682 4.56094L16.8063 3.83054ZM16.2269 5.30737L14.3651 4.57697C14.1255 5.18766 14.2007 5.87701 14.5662 6.42175L16.2269 5.30737ZM16.7358 6.18941L14.9397 7.06914C15.2286 7.65903 15.7888 8.06946 16.4383 8.16716L16.7358 6.18941ZM22 8.40207C22 6.42271 20.5523 4.74099 18.595 4.44657L18 8.40207L18 8.40207L22 8.40207ZM22 10.5995L22 8.40207L18 8.40207L18 10.5995L22 10.5995ZM18.595 14.555C20.5523 14.2606 22 12.5789 22 10.5995L18 10.5995L18 10.5995L18.595 14.555ZM17.0333 14.7899L18.595 14.555L18 10.5995L16.4383 10.8344L17.0333 14.7899ZM17.8883 14.8077C18.1268 14.4522 18.3421 14.0796 18.5319 13.6919L14.9397 11.9324C14.8298 12.1569 14.705 12.3729 14.5665 12.5793L17.8883 14.8077ZM18.6686 14.4406L18.0894 12.9634L14.3654 14.4236L14.9446 15.9008L18.6686 14.4406ZM16.947 19.3689C18.6596 18.3774 19.3907 16.2823 18.6686 14.4406L14.9446 15.9008C14.9453 15.9024 14.9453 15.9029 14.9453 15.9026C14.9452 15.9023 14.9452 15.902 14.9452 15.9018C14.9452 15.9016 14.9452 15.9027 14.9445 15.9047C14.9438 15.9067 14.9431 15.9075 14.9433 15.9072C14.9435 15.907 14.9438 15.9067 14.9441 15.9064C14.9445 15.9061 14.9442 15.9064 14.9428 15.9073L16.947 19.3689ZM15.0571 20.4631L16.947 19.3689L14.9428 15.9072L13.0529 17.0014L15.0571 20.4631ZM9.92717 19.4908C11.1599 21.043 13.3424 21.4559 15.0571 20.4631L13.0529 17.0014C13.0515 17.0022 13.0513 17.0022 13.052 17.002C13.0527 17.0017 13.0535 17.0015 13.0544 17.0014C13.0559 17.0011 13.0563 17.0013 13.056 17.0012C13.0556 17.0011 13.0562 17.0012 13.0576 17.002C13.0584 17.0025 13.0592 17.0031 13.0598 17.0036C13.0605 17.0042 13.0604 17.0042 13.0594 17.0031L9.92717 19.4908ZM8.94069 18.2487L9.92717 19.4908L13.0595 17.0031L12.073 15.761L8.94069 18.2487ZM10 19.0218C10.2149 19.0218 10.4285 19.0146 10.6404 19.0004L10.3733 15.0093C10.2502 15.0176 10.1257 15.0218 10 15.0218L10 19.0218ZM9.359 19.0004C9.57112 19.0146 9.78487 19.0218 10 19.0218L10 15.0218C9.87412 15.0218 9.74953 15.0176 9.62633 15.0093L9.359 19.0004ZM10.0729 19.4904L11.0589 18.2485L7.92639 15.7611L6.94031 17.003L10.0729 19.4904ZM4.94264 20.463C6.65755 21.4559 8.84016 21.0428 10.0729 19.4904L6.94031 17.003C6.9394 17.0041 6.93925 17.0041 6.93992 17.0035C6.94054 17.003 6.94132 17.0024 6.94212 17.0019C6.94359 17.0011 6.94417 17.0011 6.94379 17.0011C6.94341 17.0012 6.94387 17.001 6.94539 17.0013C6.94623 17.0014 6.94707 17.0016 6.94774 17.0019C6.94847 17.0021 6.94823 17.0021 6.94683 17.0013L4.94264 20.463ZM3.05309 19.369L4.94264 20.463L6.94683 17.0013L5.05729 15.9073L3.05309 19.369ZM1.33164 14.4403C0.609262 16.2821 1.34037 18.3774 3.0531 19.369L5.05729 15.9073C5.0559 15.9065 5.05564 15.9062 5.05599 15.9065C5.05629 15.9068 5.05658 15.9071 5.05675 15.9073C5.05699 15.9076 5.05629 15.9068 5.05559 15.9048C5.0549 15.9028 5.05492 15.9017 5.05492 15.9019C5.05491 15.9021 5.05488 15.9024 5.05483 15.9027C5.05476 15.903 5.05481 15.9025 5.05545 15.9009L1.33164 14.4403ZM1.91088 12.9635L1.33164 14.4403L5.05545 15.9009L5.63469 14.4241L1.91088 12.9635ZM1.46806 13.6919C1.65801 14.0797 1.87339 14.4525 2.11193 14.8081L5.43363 12.5795C5.29513 12.3731 5.17028 12.1569 5.06031 11.9324L1.46806 13.6919ZM1.40501 14.555L2.96669 14.7899L3.56168 10.8344L2 10.5995L1.40501 14.555ZM-2 10.5995C-2 12.5789 -0.552331 14.2606 1.40502 14.555L2 10.5995L2 10.5995L-2 10.5995ZM-2 8.40207L-2 10.5995L2 10.5995L2 8.40207L-2 8.40207ZM1.40501 4.44657C-0.552328 4.74099 -2 6.4227 -2 8.40207L2 8.40207L2 8.40207L1.40501 4.44657ZM2.96669 4.21166L1.40501 4.44657L2 8.40207L3.56167 8.16716L2.96669 4.21166ZM2.1116 4.19401C1.87318 4.54942 1.65792 4.92204 1.46805 5.30969L5.06031 7.06913C5.17023 6.84472 5.295 6.62868 5.43343 6.42234L2.1116 4.19401ZM1.3313 4.56084L1.91051 6.03819L5.63452 4.57815L5.05531 3.10081L1.3313 4.56084ZM3.05295 -0.367339C1.34041 0.624169 0.609257 2.71919 1.3313 4.56084L5.05531 3.10081C5.05468 3.09919 5.05463 3.09867 5.05469 3.09902C5.05475 3.09929 5.05478 3.09961 5.05478 3.09981C5.05478 3.10001 5.05476 3.09885 5.05546 3.09687C5.05615 3.09489 5.05685 3.09408 5.05662 3.09437C5.05644 3.09458 5.05615 3.09488 5.05585 3.09514C5.0555 3.09544 5.05576 3.09514 5.05715 3.09434L3.05295 -0.367339ZM4.94292 -1.46157L3.05296 -0.367339L5.05715 3.09434L6.94712 2.00011L4.94292 -1.46157ZM10.0728 -0.489368C8.84001 -2.04146 6.65765 -2.45433 4.94292 -1.46157L6.94712 2.00011C6.94851 1.99931 6.94876 1.99931 6.94802 1.99957C6.94735 1.99981 6.94652 2.00003 6.94568 2.00017C6.94415 2.00042 6.9437 2.00024 6.94408 2.00031C6.94445 2.00039 6.94388 2.00037 6.94241 1.99949C6.94161 1.99901 6.94083 1.99844 6.94021 1.9979C6.93953 1.99732 6.93968 1.99731 6.9406 1.99847L10.0728 -0.489368ZM11.0594 0.752763L10.0728 -0.489369L6.9406 1.99847L7.9272 3.2406L11.0594 0.752763ZM10 -0.0202117C9.78514 -0.0202117 9.57165 -0.0130305 9.3598 0.00114254L9.6268 3.99222C9.74985 3.98399 9.87429 3.97979 10 3.97979L10 -0.0202117ZM10.6409 0.00118709C10.4288 -0.0130155 10.2151 -0.0202117 10 -0.0202117L10 3.97979C10.1258 3.97979 10.2504 3.984 10.3736 3.99225L10.6409 0.00118709ZM12.0736 3.24031L13.0598 1.99816L9.92708 -0.489036L8.94087 0.753121L12.0736 3.24031ZM13.0598 1.99816C13.0607 1.997 13.0609 1.997 13.0602 1.99759C13.0596 1.99813 13.0588 1.9987 13.058 1.99918C13.0565 2.00006 13.0559 2.00007 13.0563 2C13.0567 1.99993 13.0562 2.00011 13.0547 1.99986C13.0539 1.99972 13.053 1.9995 13.0524 1.99926C13.0516 1.999 13.0519 1.99899 13.0533 1.9998L15.0575 -1.46188C13.3425 -2.4548 11.1597 -2.04162 9.92708 -0.489036L13.0598 1.99816ZM13.0533 1.9998L14.9426 3.09367L16.9468 -0.368008L15.0575 -1.46188L13.0533 1.9998ZM14.9426 3.09367C14.944 3.09447 14.9443 3.09477 14.9439 3.09447C14.9436 3.09422 14.9433 3.09391 14.9431 3.0937C14.9429 3.09341 14.9436 3.09422 14.9443 3.0962C14.945 3.09819 14.945 3.09934 14.945 3.09914C14.945 3.09894 14.945 3.09862 14.9451 3.09835C14.9451 3.098 14.9451 3.09852 14.9445 3.10014L18.6682 4.56094C19.3907 2.71914 18.6596 0.623655 16.9468 -0.368008L14.9426 3.09367ZM14.9445 3.10014L14.3651 4.57697L18.0888 6.03777L18.6682 4.56094L14.9445 3.10014ZM18.5319 5.30968C18.3419 4.92167 18.1264 4.54871 17.8877 4.193L14.5662 6.42175C14.7048 6.62827 14.8297 6.84451 14.9397 7.06914L18.5319 5.30968ZM18.595 4.44657L17.0333 4.21166L16.4383 8.16716L18 8.40207L18.595 4.44657Z" fill="#111111" mask="url(#path-1-inside-1_3685_5061)"/>
</g>
<circle id="Ellipse 126" cx="10" cy="9.47461" r="3" stroke="#111111" stroke-width="2"/>
</g>
</svg>
