<svg width="30" height="30" viewBox="0 0 30 30" fill="none" xmlns="http://www.w3.org/2000/svg">
<path fill-rule="evenodd" clip-rule="evenodd" d="M7 6H17C19.2091 6 21 7.79086 21 10V20C21 22.2091 19.2091 24 17 24H7C4.79086 24 3 22.2091 3 20V10C3 7.79086 4.79086 6 7 6ZM12 10.4C12.5523 10.4 13 10.8477 13 11.4V14H16C16.5523 14 17 14.4477 17 15C17 15.5523 16.5523 16 16 16H13V18.6C13 19.1523 12.5523 19.6 12 19.6C11.4477 19.6 11 19.1523 11 18.6V16H8C7.44772 16 7 15.5523 7 15C7 14.4477 7.44772 14 8 14H11V11.4C11 10.8477 11.4477 10.4 12 10.4Z" fill="#B7B7B7"/>
<path d="M27 18.3116C27 20.2007 24.6223 21.0367 23.4401 19.5633L22.4401 18.3169C22.1552 17.962 22 17.5204 22 17.0653V11.9964C22 11.4789 22.2006 10.9815 22.5597 10.6088L23.5597 9.57083C24.8085 8.27469 27 9.15865 27 10.9585V18.3116Z" fill="#B7B7B7"/>
</svg>
