<svg width="24" height="24" viewBox="0 0 24 24" fill="none" xmlns="http://www.w3.org/2000/svg">
<path d="M3 19V15H7" stroke="black" stroke-width="2" stroke-linecap="round" stroke-linejoin="round"/>
<path d="M21 6V10H17" stroke="black" stroke-width="2" stroke-linecap="round" stroke-linejoin="round"/>
<path d="M5.05364 9.70526C5.46859 8.58088 6.17384 7.57561 7.10356 6.78325C8.03329 5.9909 9.1572 5.43729 10.3704 5.17408C11.5836 4.91087 12.8466 4.94663 14.0415 5.27804C15.2364 5.60945 16.3243 6.22569 17.2036 7.06928L20.5 9.70526M3 15.2947L6.79636 17.9307C7.6757 18.7743 8.76358 19.3906 9.95848 19.722C11.1534 20.0534 12.4164 20.0891 13.6296 19.8259C14.8428 19.5627 15.9667 19.0091 16.8964 18.2167C17.8262 17.4244 18.5314 16.4191 18.9464 15.2947" stroke="black" stroke-width="2" stroke-linecap="round" stroke-linejoin="round"/>
</svg>
