<svg width="17" height="16" viewBox="0 0 17 16" fill="none" xmlns="http://www.w3.org/2000/svg">
<path fill-rule="evenodd" clip-rule="evenodd" d="M4.24182 13.0906C4.69938 11.5985 6.25581 10.5 8.10547 10.5C9.95513 10.5 11.5116 11.5985 11.9691 13.0906C13.2755 11.99 14.1055 10.3419 14.1055 8.5C14.1055 5.18629 11.4192 2.5 8.10547 2.5C4.79176 2.5 2.10547 5.18629 2.10547 8.5C2.10547 10.3419 2.93545 11.99 4.24182 13.0906ZM10.1055 7.5C10.1055 8.60457 9.21004 9.5 8.10547 9.5C7.0009 9.5 6.10547 8.60457 6.10547 7.5C6.10547 6.39543 7.0009 5.5 8.10547 5.5C9.21004 5.5 10.1055 6.39543 10.1055 7.5Z" fill="#585858"/>
</svg>
