<svg width="24" height="24" viewBox="0 0 24 24" fill="none" xmlns="http://www.w3.org/2000/svg">
<g id="badge_musician">
<g id="Group 492">
<path id="Subtract" fill-rule="evenodd" clip-rule="evenodd" d="M10 20C14.4183 20 18 16.4183 18 12C18 7.58172 14.4183 4 10 4C5.58172 4 2 7.58172 2 12C2 16.4183 5.58172 20 10 20ZM10 16C12.2091 16 14 14.2091 14 12C14 9.79086 12.2091 8 10 8C7.79086 8 6 9.79086 6 12C6 14.2091 7.79086 16 10 16Z" fill="#111111"/>
<path id="Subtract_2" fill-rule="evenodd" clip-rule="evenodd" d="M10 15C11.6569 15 13 13.6569 13 12C13 10.3431 11.6569 9 10 9C8.34315 9 7 10.3431 7 12C7 13.6569 8.34315 15 10 15ZM10 11C10.5523 11 11 11.4477 11 12C11 12.5523 10.5523 13 10 13C9.44772 13 9 12.5523 9 12C9 11.4477 9.44772 11 10 11Z" fill="url(#paint0_linear_2347_17406)"/>
<path id="Ellipse 152" d="M19 6C19 7.65685 17.6569 9 16 9C14.3431 9 13 7.65685 13 6C13 4.34315 14.3431 3 16 3C17.6569 3 19 4.34315 19 6Z" fill="white"/>
<path id="Union" fill-rule="evenodd" clip-rule="evenodd" d="M19.9018 3.99029C20.1726 4.04445 20.436 3.86884 20.4902 3.59806C20.5443 3.32728 20.3687 3.06387 20.098 3.00971C18.429 2.67592 17.9999 1.21064 17.9999 0.5C17.9999 0.223857 17.776 0 17.4999 0C17.2238 0 16.9999 0.223858 16.9999 0.5L16.9999 4.26751C16.7058 4.09737 16.3642 4 16 4C14.8954 4 14 4.89543 14 6C14 7.10457 14.8954 8 16 8C17.1046 8 18 7.10457 18 6C18 5.99338 18 5.98677 17.9999 5.98016L17.9999 2.9767C18.4392 3.43939 19.0542 3.82076 19.9018 3.99029Z" fill="url(#paint1_linear_2347_17406)"/>
</g>
</g>
<defs>
<linearGradient id="paint0_linear_2347_17406" x1="7" y1="9" x2="13" y2="15" gradientUnits="userSpaceOnUse">
<stop stop-color="#FF880A"/>
<stop offset="0.447917" stop-color="#FF5C00"/>
<stop offset="0.786458" stop-color="#FF5C00"/>
<stop offset="1" stop-color="#E45200"/>
</linearGradient>
<linearGradient id="paint1_linear_2347_17406" x1="14" y1="0" x2="21.8306" y2="6.36235" gradientUnits="userSpaceOnUse">
<stop stop-color="#FF880A"/>
<stop offset="0.447917" stop-color="#FF5C00"/>
<stop offset="0.786458" stop-color="#FF5C00"/>
<stop offset="1" stop-color="#E45200"/>
</linearGradient>
</defs>
</svg>
