<svg width="18" height="16" viewBox="0 0 18 16" fill="none" xmlns="http://www.w3.org/2000/svg">
<g id="Group 497">
<rect id="Rectangle 275" x="8" y="6" width="9" height="9" rx="4" stroke="#111111" stroke-width="2"/>
<path id="Subtract" fill-rule="evenodd" clip-rule="evenodd" d="M2 2H10V4.34141C10.6256 4.12031 11.2987 4 12 4V2C12 0.895431 11.1046 0 10 0H2C0.895431 0 0 0.895431 0 2V14C0 15.1046 0.895431 16 2 16H8.68221C7.91211 15.488 7.26707 14.8028 6.80269 14H2L2 2Z" fill="#111111"/>
<path id="Vector 38" d="M11 10.6667L12.2 12L14 10" stroke="#111111" stroke-width="2" stroke-linecap="round" stroke-linejoin="round"/>
<path id="Line 82" d="M4 4H7" stroke="#111111" stroke-width="2" stroke-linecap="round"/>
<path id="Line 83" d="M4 7H5" stroke="#111111" stroke-width="2" stroke-linecap="round"/>
</g>
</svg>
