<svg width="24" height="24" viewBox="0 0 24 24" fill="none" xmlns="http://www.w3.org/2000/svg">
<g id="Icon/more">
<g id="Group 376">
<rect id="Rectangle 100" x="3" y="4" width="18" height="15" rx="5" stroke="#111111" stroke-width="2"/>
</g>
<g id="Group 360">
<path id="Union" fill-rule="evenodd" clip-rule="evenodd" d="M11.38 8.19974C10.238 7.58135 9 8.4154 9 9.40985V13.5883C9 14.5828 10.2382 15.4169 11.3803 14.7982C11.866 14.5352 12.4729 14.7156 12.7359 15.2012C12.999 15.6868 12.8186 16.2937 12.333 16.5568C10.047 17.7951 7 16.3079 7 13.5883V9.40985C7 6.69023 10.047 5.203 12.333 6.44136L12.3337 6.44177L15.2262 8.01191L15.2311 8.01455L15.2311 8.01456L16.4705 8.69622C17.3992 9.20701 17.9989 10.1674 17.9989 11.236C17.9989 12.8993 16.5932 14.1589 14.9717 14.1589H12.4994C12.4868 14.1589 12.4743 14.1587 12.4618 14.1582H11.7539C10.5618 14.1582 9.50408 13.2288 9.50408 11.9726C9.50408 10.7165 10.5618 9.78702 11.7539 9.78702H12.9994C13.5517 9.78702 13.9994 10.2347 13.9994 10.787C13.9994 11.3393 13.5517 11.787 12.9994 11.787H11.7539C11.6678 11.787 11.6009 11.8194 11.5584 11.8598C11.5168 11.8992 11.5041 11.9389 11.5041 11.9726C11.5041 12.0063 11.5168 12.046 11.5584 12.0854C11.6009 12.1258 11.6678 12.1582 11.7539 12.1582H14.0036C14.0162 12.1582 14.0288 12.1584 14.0413 12.1589H14.9717C15.5894 12.1589 15.9989 11.6966 15.9989 11.236C15.9989 10.9331 15.8287 10.6258 15.5066 10.4487L14.2697 9.76834L11.3803 8.19991C11.3802 8.19986 11.3801 8.1998 11.38 8.19974Z" fill="#111111"/>
</g>
</g>
</svg>
