<svg width="49" height="48" viewBox="0 0 49 48" fill="none" xmlns="http://www.w3.org/2000/svg">
<g filter="url(#filter0_d_714_3203)">
<path fill-rule="evenodd" clip-rule="evenodd" d="M26.3277 9.16135C25.1672 7.61288 22.8442 7.61288 21.6837 9.16135C20.9954 10.0798 19.8301 10.5061 18.7116 10.2484C16.8375 9.8165 15.0697 11.2952 15.1637 13.2161L15.1667 13.2777C15.223 14.4276 14.604 15.5048 13.5823 16.0352C11.8625 16.9281 11.4685 19.2203 12.7777 20.6489C13.5564 21.4987 13.7692 22.7446 13.3263 23.8088C12.5855 25.5886 13.728 27.6185 15.6404 27.8617C16.7805 28.0068 17.7335 28.8197 18.0691 29.9189C18.6317 31.761 20.8117 32.5753 22.4246 31.5225C23.3854 30.8953 24.626 30.8953 25.5868 31.5225C27.1997 32.5753 29.3797 31.761 29.9423 29.9189C30.278 28.8197 31.2309 28.0068 32.371 27.8617C34.2834 27.6185 35.4259 25.5886 34.6852 23.8088C34.2423 22.7446 34.455 21.4987 35.2337 20.6489C36.5429 19.2203 36.1489 16.9281 34.4291 16.0352C33.4074 15.5048 32.7885 14.4276 32.8447 13.2777L32.8477 13.2161C32.9417 11.2952 31.1739 9.8165 29.2998 10.2484C28.1814 10.5061 27.016 10.0798 26.3277 9.16135ZM28.0746 23.0509C27.6736 23.3263 27.2484 23.464 26.7989 23.464C26.3515 23.464 25.9874 23.3359 25.7067 23.0797C25.426 22.8213 25.2857 22.4744 25.2857 22.0389V20.3736H24.9248V19.3585H25.2857V18.2825L27.1787 18.0871V19.3585H28.0746V20.3736H27.1787V21.3792C27.1787 21.6802 27.2452 21.8991 27.3782 22.0357C27.5132 22.1702 27.7454 22.2374 28.0746 22.2374V23.0509ZM22.6329 20.4601C22.7004 20.4601 22.7553 20.4708 22.7975 20.4921C22.9157 20.5519 22.9748 20.6651 22.9748 20.8316C22.9748 20.9981 22.9167 21.1871 22.8007 21.3984C22.6846 21.6076 22.5495 21.7859 22.3954 21.9332C22.3216 22.0037 22.2477 22.0602 22.1739 22.1029C22.1 22.1435 22.0293 22.1638 21.9618 22.1638C21.8942 22.1638 21.8372 22.1531 21.7908 22.1318C21.66 22.072 21.5945 21.9556 21.5945 21.7827C21.5945 21.6076 21.6505 21.4166 21.7623 21.2095C21.8742 21.0024 22.0124 20.8262 22.177 20.6811C22.2551 20.6128 22.3342 20.5594 22.4144 20.5209C22.4946 20.4804 22.5674 20.4601 22.6329 20.4601ZM20.6227 22.8779C21.0595 23.2643 21.5798 23.4576 22.1834 23.4576C22.5843 23.4554 22.961 23.3668 23.3135 23.1918C23.6659 23.0167 23.9477 22.769 24.1587 22.4488C24.3698 22.1286 24.4742 21.7603 24.4721 21.344C24.47 20.6949 24.2505 20.1772 23.8137 19.7908C23.3768 19.4022 22.8376 19.208 22.196 19.208C21.5544 19.208 21.0152 19.4065 20.5784 19.8036C20.1415 20.1986 19.9231 20.7078 19.9231 21.3312C19.9231 21.9524 20.1563 22.468 20.6227 22.8779ZM18.3371 19.3585L17.7989 20.5306L17.2133 19.3585H15.3614L17.4032 23.3327C17.4475 23.4159 17.533 23.4576 17.6596 23.4576C17.7863 23.4576 17.8686 23.4159 17.9066 23.3327L19.8471 19.3585H18.3371ZM30.9712 20.2167C31.1442 20.2167 31.2308 20.3107 31.2308 20.4985L31.2244 20.5722L31.1643 21.0622L30.471 21.2191C30.4942 21.0846 30.5111 20.9586 30.5217 20.8412C30.5343 20.7216 30.5554 20.617 30.585 20.5274C30.6441 20.3395 30.7728 20.2359 30.9712 20.2167ZM30.6293 21.9556H30.8034C31.4007 21.9556 31.8755 21.8105 32.228 21.5201C32.5804 21.2297 32.7566 20.8978 32.7566 20.5242C32.7587 20.1505 32.6121 19.8367 32.3166 19.5826C32.0232 19.3286 31.5896 19.2016 31.0155 19.2016C30.5723 19.2016 30.1597 19.2902 29.7777 19.4674C29.3958 19.6446 29.0929 19.904 28.8692 20.2455C28.6286 20.6192 28.5083 21.0408 28.5083 21.5105C28.5083 22.1339 28.7215 22.6217 29.1478 22.974C29.5403 23.2964 30.0099 23.4576 30.5565 23.4576C31.5083 23.4576 32.2195 23.2515 32.6901 22.8395L32.4939 21.8435C32.2786 22.0314 32.0349 22.167 31.7626 22.2503C31.4925 22.3335 31.2677 22.3751 31.0883 22.3751C31.0187 22.3751 30.9469 22.3719 30.8731 22.3655C30.605 22.3421 30.471 22.2033 30.471 21.9492C30.5217 21.9535 30.5744 21.9556 30.6293 21.9556Z" fill="white"/>
</g>
<defs>
<filter id="filter0_d_714_3203" x="0" y="0" width="48.0114" height="47.9888" filterUnits="userSpaceOnUse" color-interpolation-filters="sRGB">
<feFlood flood-opacity="0" result="BackgroundImageFix"/>
<feColorMatrix in="SourceAlpha" type="matrix" values="0 0 0 0 0 0 0 0 0 0 0 0 0 0 0 0 0 0 127 0" result="hardAlpha"/>
<feOffset dy="4"/>
<feGaussianBlur stdDeviation="6"/>
<feComposite in2="hardAlpha" operator="out"/>
<feColorMatrix type="matrix" values="0 0 0 0 0.0776389 0 0 0 0 0.139392 0 0 0 0 0.358333 0 0 0 0.18 0"/>
<feBlend mode="normal" in2="BackgroundImageFix" result="effect1_dropShadow_714_3203"/>
<feBlend mode="normal" in="SourceGraphic" in2="effect1_dropShadow_714_3203" result="shape"/>
</filter>
</defs>
</svg>
