<svg width="42" height="42" viewBox="0 0 42 42" fill="none" xmlns="http://www.w3.org/2000/svg">
<g filter="url(#filter0_d_717_3208)">
<path d="M29.8758 12.6101C29.6066 11.1239 28.6357 8.40918 25.0786 8.40918C22.0192 8.40918 21.187 11.1926 20.9993 12.7046C20.8117 11.1926 19.9795 8.40918 16.9201 8.40918C13.3711 8.40918 12.3921 11.1239 12.1228 12.6101C12.0331 13.1342 11.9597 13.8988 12.0249 14.4228C12.1228 15.2132 12.0249 15.2819 12.8408 17.0001C14.6683 20.8402 20.9993 25.591 20.9993 25.591C20.9993 25.591 27.3304 20.8402 29.1579 17.0001C29.9737 15.2819 29.8758 15.2132 29.9737 14.4228C30.039 13.8988 29.9737 13.1256 29.8758 12.6101Z" fill="#CFCFCF"/>
</g>
<defs>
<filter id="filter0_d_717_3208" x="0" y="0.40918" width="42" height="41.1816" filterUnits="userSpaceOnUse" color-interpolation-filters="sRGB">
<feFlood flood-opacity="0" result="BackgroundImageFix"/>
<feColorMatrix in="SourceAlpha" type="matrix" values="0 0 0 0 0 0 0 0 0 0 0 0 0 0 0 0 0 0 127 0" result="hardAlpha"/>
<feOffset dy="4"/>
<feGaussianBlur stdDeviation="6"/>
<feComposite in2="hardAlpha" operator="out"/>
<feColorMatrix type="matrix" values="0 0 0 0 0.0776389 0 0 0 0 0.139392 0 0 0 0 0.358333 0 0 0 0.18 0"/>
<feBlend mode="normal" in2="BackgroundImageFix" result="effect1_dropShadow_717_3208"/>
<feBlend mode="normal" in="SourceGraphic" in2="effect1_dropShadow_717_3208" result="shape"/>
</filter>
</defs>
</svg>
