<svg width="24" height="24" viewBox="0 0 24 24" fill="none" xmlns="http://www.w3.org/2000/svg">
<path fill-rule="evenodd" clip-rule="evenodd" d="M8.29391 17.8854L7.51453 17.5556C7.27957 17.4561 7.00617 17.396 6.70588 17.396C5.54052 17.396 5 18.1897 5 18.698C5 19.2063 5.54052 20 6.70588 20C7.87125 20 8.41177 19.2063 8.41177 18.698C8.41177 18.6446 8.40752 18.5931 8.39952 18.5433L8.29391 17.8854ZM10.3742 19.1697C10.399 19.0156 10.4118 18.8582 10.4118 18.698C10.4118 18.5378 10.399 18.3803 10.3742 18.2263H10.4118V10.9737L18.8824 8.37923V12.8835C18.401 12.6797 17.8625 12.5657 17.2941 12.5657C17.1549 12.5657 17.0176 12.5725 16.8824 12.5859C15.0294 12.7684 13.5882 14.1681 13.5882 15.8677C13.5882 17.6914 15.2474 19.1697 17.2941 19.1697C19.1611 19.1697 20.7056 17.9396 20.9625 16.3394H21V3.88837C21 2.59305 19.5687 1.68291 18.1939 2.10399L9.72336 4.69843C8.86825 4.96034 8.29412 5.67713 8.29412 6.4828V15.7138C7.81275 15.51 7.27426 15.396 6.70588 15.396C6.5667 15.396 6.42931 15.4028 6.29412 15.4161C4.4412 15.5986 3 16.9984 3 18.698C3 20.5216 4.65918 22 6.70588 22C8.57284 22 10.1174 20.7699 10.3742 19.1697ZM10.2941 8.91798V6.61573C10.2987 6.61406 10.3037 6.61238 10.3091 6.61074L18.7797 4.01631C18.867 3.98956 18.9455 3.99945 19 4.02062V6.25148L10.2941 8.91798ZM19 15.105V15.9461L18.9878 16.0224C18.9104 16.5044 18.3372 17.1697 17.2941 17.1697C16.1288 17.1697 15.5882 16.376 15.5882 15.8677C15.5882 15.3594 16.1288 14.5657 17.2941 14.5657C17.5944 14.5657 17.8678 14.6258 18.1028 14.7253L19 15.105Z" fill="url(#paint0_linear_1396_7247)"/>
<defs>
<linearGradient id="paint0_linear_1396_7247" x1="3" y1="2" x2="22.8895" y2="19.9006" gradientUnits="userSpaceOnUse">
<stop stop-color="#FF880A"/>
<stop offset="0.447917" stop-color="#FF5C00"/>
<stop offset="0.786458" stop-color="#FF5C00"/>
<stop offset="1" stop-color="#E45200"/>
</linearGradient>
</defs>
</svg>
