<svg width="24" height="24" viewBox="0 0 24 24" fill="none" xmlns="http://www.w3.org/2000/svg">
<rect x="2" y="5" width="16" height="15" rx="5" stroke="#111111" stroke-width="2"/>
<path d="M8.94814 15.3638C8.95319 15.344 8.95588 15.3232 8.95588 15.3018V11.3286L12.6912 10.2989V12.563C12.5172 12.5248 12.3348 12.5046 12.1471 12.5046C11.04 12.5046 10.0441 13.2331 10.0441 14.2405C10.0441 15.2479 11.04 15.9764 12.1471 15.9764C13.1247 15.9764 14.0035 15.4151 14.2068 14.5932C14.2341 14.5532 14.25 14.5048 14.25 14.4527V14.2405V10.5788V10.2073V8.84977C14.25 8.44679 14.002 8.12571 13.6804 7.94166C13.3582 7.75724 12.9389 7.69322 12.5305 7.80579L8.29524 8.97328C7.7916 9.11211 7.39706 9.51187 7.39706 10.0173V11.4809V12.33V13.8366C7.22311 13.7984 7.04066 13.7782 6.85294 13.7782C5.74585 13.7782 4.75 14.5067 4.75 15.5141C4.75 16.5215 5.74585 17.25 6.85294 17.25C7.96003 17.25 8.95588 16.5215 8.95588 15.5141C8.95588 15.4635 8.95327 15.4134 8.94814 15.3638Z" fill="#111111" stroke="#111111" stroke-width="0.5" stroke-linejoin="round"/>
<path d="M18 11.4549C18 11.2337 18.0733 11.0188 18.2084 10.8438L20.2084 8.2529C20.7914 7.49773 22 7.90996 22 8.86395V16.136C22 17.09 20.7914 17.5023 20.2084 16.7471L18.2084 14.1562C18.0733 13.9812 18 13.7663 18 13.5451V11.4549Z" stroke="#111111" stroke-width="2" stroke-linejoin="round"/>
</svg>
