<svg width="24" height="24" viewBox="0 0 24 24" fill="none" xmlns="http://www.w3.org/2000/svg">
<rect x="2" y="5" width="16" height="15" rx="5" stroke="#111111" stroke-width="2"/>
<path d="M11.058 16.5C11.2253 16.5 11.3816 16.4163 11.4743 16.277C11.567 16.1376 11.5838 15.9612 11.5192 15.8068L8.58719 8.80683C8.50934 8.62097 8.32752 8.5 8.12601 8.5H7.93198C7.73047 8.5 7.54865 8.62097 7.4708 8.80683L4.53882 15.8068C4.47417 15.9612 4.49102 16.1376 4.58372 16.277C4.67641 16.4163 4.83266 16.5 5 16.5H5.18325C5.38509 16.5 5.56713 16.3786 5.64477 16.1923L5.93331 15.5H7.93198H8H10.1534L10.4065 16.1755C10.4797 16.3707 10.6663 16.5 10.8747 16.5H11.058ZM7.93198 14.5H6.35102L8.03294 10.4776L9.74396 14.5H8H7.93198ZM14.5 9C14.5 8.72386 14.2761 8.5 14 8.5H13.8275C13.5514 8.5 13.3275 8.72386 13.3275 9V16C13.3275 16.2761 13.5514 16.5 13.8275 16.5H14C14.2761 16.5 14.5 16.2761 14.5 16V9Z" fill="black" stroke="black" stroke-linejoin="round"/>
<path d="M18 11.4549C18 11.2337 18.0733 11.0188 18.2084 10.8438L20.2084 8.2529C20.7914 7.49773 22 7.90996 22 8.86395V16.136C22 17.09 20.7914 17.5023 20.2084 16.7471L18.2084 14.1562C18.0733 13.9812 18 13.7663 18 13.5451V11.4549Z" stroke="#111111" stroke-width="2" stroke-linejoin="round"/>
</svg>
