<svg width="17" height="17" viewBox="0 0 17 17" fill="none" xmlns="http://www.w3.org/2000/svg">
<path fill-rule="evenodd" clip-rule="evenodd" d="M7.36168 4.48413C6.93413 4.62818 6.64706 5.02242 6.64706 5.46554V7.25447V8.29225V10.5426C6.40637 10.4305 6.13713 10.3678 5.85294 10.3678C4.82959 10.3678 4 11.1809 4 12.1839C4 13.1869 4.82959 14 5.85294 14C6.87629 14 7.70588 13.1869 7.70588 12.1839C7.70588 12.0958 7.69948 12.0092 7.68712 11.9245H7.70588V7.93551L11.9412 6.50857V8.9859C11.7005 8.87384 11.4312 8.81113 11.1471 8.81113C10.1237 8.81113 9.29412 9.62423 9.29412 10.6272C9.29412 11.6302 10.1237 12.4433 11.1471 12.4433C12.0805 12.4433 12.8528 11.7668 12.9812 10.8867H13V10.6272V6.15184V5.69781V4.0386C13 3.32618 12.2844 2.8256 11.597 3.0572L7.36168 4.48413Z" fill="#111111"/>
</svg>
