<svg width="24" height="24" viewBox="0 0 24 24" fill="none" xmlns="http://www.w3.org/2000/svg">
<rect x="3" y="9" width="18" height="12" rx="2" stroke="#585858" stroke-width="2"/>
<path fill-rule="evenodd" clip-rule="evenodd" d="M16 8V9H18V8C18 4.68629 15.3137 2 12 2C8.68629 2 6 4.68629 6 8V9H8V8C8 5.79086 9.79086 4 12 4C14.2091 4 16 5.79086 16 8Z" fill="#585858"/>
<mask id="path-3-inside-1_357_2732" fill="white">
<path fill-rule="evenodd" clip-rule="evenodd" d="M13.5 16.3809C14.3967 15.8622 15 14.8926 15 13.7822C15 12.1254 13.6569 10.7822 12 10.7822C10.3431 10.7822 9 12.1254 9 13.7822C9 14.8927 9.6033 15.8622 10.5 16.3809V17.3179C10.5 18.1464 11.1716 18.8179 12 18.8179C12.8284 18.8179 13.5 18.1464 13.5 17.3179V16.3809Z"/>
</mask>
<path d="M13.5 16.3809L12.4986 14.6497L11.5 15.2273V16.3809H13.5ZM10.5 16.3809H12.5V15.2273L11.5015 14.6497L10.5 16.3809ZM13 13.7822C13 14.1498 12.8027 14.4737 12.4986 14.6497L14.5015 18.1121C15.9907 17.2506 17 15.6354 17 13.7822H13ZM12 12.7822C12.5523 12.7822 13 13.2299 13 13.7822H17C17 11.0208 14.7614 8.78223 12 8.78223V12.7822ZM11 13.7822C11 13.2299 11.4477 12.7822 12 12.7822V8.78223C9.23858 8.78223 7 11.0208 7 13.7822H11ZM11.5015 14.6497C11.1973 14.4737 11 14.1499 11 13.7822H7C7 15.6355 8.00927 17.2506 9.49856 18.1121L11.5015 14.6497ZM8.50001 16.3809V17.3179H12.5V16.3809H8.50001ZM8.50001 17.3179C8.50001 19.2509 10.067 20.8179 12 20.8179V16.8179C12.2762 16.8179 12.5 17.0418 12.5 17.3179H8.50001ZM12 20.8179C13.933 20.8179 15.5 19.2509 15.5 17.3179H11.5C11.5 17.0418 11.7239 16.8179 12 16.8179V20.8179ZM15.5 17.3179V16.3809H11.5V17.3179H15.5Z" fill="#585858" mask="url(#path-3-inside-1_357_2732)"/>
</svg>
