<svg width="16" height="16" viewBox="0 0 16 16" fill="none" xmlns="http://www.w3.org/2000/svg">
<path fill-rule="evenodd" clip-rule="evenodd" d="M10.9827 7.39814C10.9827 9.3779 9.37783 10.9828 7.39808 10.9828C5.41832 10.9828 3.81342 9.3779 3.81342 7.39814C3.81342 5.41838 5.41832 3.81348 7.39808 3.81348C9.37783 3.81348 10.9827 5.41838 10.9827 7.39814ZM10.585 11.9848C9.68124 12.6139 8.58274 12.9828 7.39808 12.9828C4.31375 12.9828 1.81342 10.4825 1.81342 7.39814C1.81342 4.31382 4.31375 1.81348 7.39808 1.81348C10.4824 1.81348 12.9827 4.31382 12.9827 7.39814C12.9827 8.58289 12.6138 9.68147 11.9846 10.5853C12.0228 10.6138 12.0594 10.6454 12.0941 10.6801L14.4875 13.0735C14.878 13.464 14.878 14.0972 14.4875 14.4877C14.097 14.8782 13.4638 14.8782 13.0733 14.4877L10.6798 12.0943C10.6451 12.0596 10.6135 12.023 10.585 11.9848Z" fill="#404040"/>
</svg>
