<svg width="24" height="24" viewBox="0 0 24 24" fill="none" xmlns="http://www.w3.org/2000/svg">
<circle cx="12" cy="12" r="7" stroke="white" stroke-width="2"/>
<path d="M11 15C11 14.4477 11.4477 14 12 14C12.5523 14 13 14.4477 13 15C13 15.5523 12.5523 16 12 16C11.4477 16 11 15.5523 11 15Z" fill="white"/>
<path d="M13 12.5455C13 12.7965 12.7761 13 12.5 13L11.5 13C11.2239 13 11 12.7965 11 12.5455L11 8.45455C11 8.20351 11.2239 8 11.5 8L12.5 8C12.7761 8 13 8.20351 13 8.45455L13 12.5455Z" fill="white"/>
</svg>
