<svg width="22" height="22" viewBox="0 0 22 22" fill="none" xmlns="http://www.w3.org/2000/svg">
<g id="heart" filter="url(#filter0_d_3118_1664)">
<path id="Vector" d="M19.8758 6.61013C19.6066 5.12391 18.6357 2.40918 15.0786 2.40918C12.0192 2.40918 11.187 5.19263 10.9993 6.70463C10.8117 5.19263 9.97952 2.40918 6.92007 2.40918C3.37111 2.40918 2.39208 5.12391 2.12285 6.61013C2.03311 7.13418 1.95968 7.89877 2.02495 8.42282C2.12285 9.21318 2.02495 9.28191 2.8408 11.0001C4.66831 14.8402 10.9993 19.591 10.9993 19.591C10.9993 19.591 17.3304 14.8402 19.1579 11.0001C19.9737 9.28191 19.8758 9.21318 19.9737 8.42282C20.039 7.89877 19.9737 7.12559 19.8758 6.61013Z" fill="#F50F00"/>
</g>
<defs>
<filter id="filter0_d_3118_1664" x="0" y="0.40918" width="22" height="21.1816" filterUnits="userSpaceOnUse" color-interpolation-filters="sRGB">
<feFlood flood-opacity="0" result="BackgroundImageFix"/>
<feColorMatrix in="SourceAlpha" type="matrix" values="0 0 0 0 0 0 0 0 0 0 0 0 0 0 0 0 0 0 127 0" result="hardAlpha"/>
<feOffset/>
<feGaussianBlur stdDeviation="1"/>
<feComposite in2="hardAlpha" operator="out"/>
<feColorMatrix type="matrix" values="0 0 0 0 0.0776389 0 0 0 0 0.139392 0 0 0 0 0.358333 0 0 0 0.2 0"/>
<feBlend mode="normal" in2="BackgroundImageFix" result="effect1_dropShadow_3118_1664"/>
<feBlend mode="normal" in="SourceGraphic" in2="effect1_dropShadow_3118_1664" result="shape"/>
</filter>
</defs>
</svg>
