<svg width="17" height="16" viewBox="0 0 17 16" fill="none" xmlns="http://www.w3.org/2000/svg">
<path d="M14.4172 5.6895C14.2377 4.738 13.5905 3 11.2191 3C9.17944 3 8.62466 4.782 8.49956 5.75C8.37446 4.782 7.81968 3 5.78005 3C3.41407 3 2.76139 4.738 2.5819 5.6895C2.52207 6.025 2.47312 6.5145 2.51663 6.85C2.5819 7.356 2.51663 7.4 3.06053 8.5C4.27888 10.9585 8.49956 14 8.49956 14C8.49956 14 12.7202 10.9585 13.9386 8.5C14.4825 7.4 14.4172 7.356 14.4825 6.85C14.526 6.5145 14.4825 6.0195 14.4172 5.6895Z" fill="#585858"/>
</svg>
