<svg width="24" height="24" viewBox="0 0 24 24" fill="none" xmlns="http://www.w3.org/2000/svg">
<path d="M11.0769 5.2807L11.8571 5.10496V4.30514V4.15385C11.8571 4.05984 11.9301 4 12 4C12.0699 4 12.1429 4.05984 12.1429 4.15385V4.30514V5.10496L12.9231 5.2807C13.6489 5.44418 14.5903 5.80064 15.3434 6.56099C16.0723 7.29685 16.7143 8.50015 16.7143 10.5444C16.7143 10.5778 16.7143 10.6112 16.7142 10.6445C16.7138 11.3533 16.7134 12.0228 16.9011 12.6348C17.1175 13.3406 17.5453 13.884 18.1754 14.4712C18.9666 15.2086 19 16.3731 19 16.9349C19 16.957 19 16.977 18.9999 16.9956C18.9596 16.9983 18.9122 17 18.8571 17H12H5.14286C5.08778 17 5.04044 16.9983 5.00007 16.9956C5.00001 16.977 5 16.957 5 16.9349C5 16.3731 5.03335 15.2086 5.82464 14.4712C6.45467 13.884 6.88254 13.3406 7.09893 12.6348C7.28655 12.0228 7.28616 11.3533 7.28575 10.6444C7.28573 10.6112 7.28571 10.5778 7.28571 10.5444C7.28571 8.50015 7.92774 7.29685 8.65657 6.56099C9.40966 5.80064 10.3511 5.44418 11.0769 5.2807Z" stroke="white" stroke-width="2"/>
<path d="M10 19C10 19 10 21 12 21C14 21 14 19 14 19" stroke="white" stroke-width="2"/>
</svg>
