<svg width="19" height="18" viewBox="0 0 19 18" fill="none" xmlns="http://www.w3.org/2000/svg">
<g id="Group 494">
<path id="Subtract" fill-rule="evenodd" clip-rule="evenodd" d="M10.1741 4.82521C10.3355 4.41646 10.4245 3.969 10.4245 3.5C10.4245 1.567 8.91342 0 7.04946 0C5.18549 0 3.67446 1.567 3.67446 3.5C3.67446 4.65264 4.21174 5.67515 5.04075 6.31287C2.59012 7.09536 0.674382 9.27295 0.0418406 12.0179C-0.205727 13.0922 0.681583 14 1.7467 14H5.88409C5.66174 13.3709 5.52999 12.699 5.50454 12H2.04815C2.71064 9.87435 4.37158 8.37342 6.29956 8.06056C7.11769 6.53739 8.50359 5.36457 10.1741 4.82521ZM8.49588 3.5C8.49588 4.32843 7.8483 5 7.04946 5C6.25062 5 5.60303 4.32843 5.60303 3.5C5.60303 2.67157 6.25062 2 7.04946 2C7.8483 2 8.49588 2.67157 8.49588 3.5Z" fill="#111111"/>
<rect id="Rectangle 262" x="7.46484" y="6.5" width="9.57143" height="10" rx="4.78571" stroke="#111111" stroke-width="2"/>
<rect id="Rectangle 263" x="11.2852" y="11.5" width="1.92857" height="3" rx="0.964286" fill="#111111"/>
<ellipse id="Ellipse 154" cx="12.2494" cy="9.5" rx="0.964286" ry="1" fill="#111111"/>
</g>
</svg>
