<svg width="24" height="24" viewBox="0 0 24 24" fill="none" xmlns="http://www.w3.org/2000/svg">
<path fill-rule="evenodd" clip-rule="evenodd" d="M16 5H8C5.79086 5 4 6.79086 4 9V15C4 17.2091 5.79086 19 8 19H16C18.2091 19 20 17.2091 20 15V9C20 6.79086 18.2091 5 16 5ZM8 3C4.68629 3 2 5.68629 2 9V15C2 18.3137 4.68629 21 8 21H16C19.3137 21 22 18.3137 22 15V9C22 5.68629 19.3137 3 16 3H8Z" fill="url(#paint0_linear_1396_7238)"/>
<path fill-rule="evenodd" clip-rule="evenodd" d="M12.0381 9.91701L12.0041 10.0096C11.6015 11.1038 10.5593 11.8308 9.39346 11.8308C8.98324 11.8308 8.58235 11.7402 8.21756 11.57L8.75163 14.4145H15.3217L15.8558 11.5703C15.4913 11.7403 15.0908 11.8308 14.681 11.8308C13.5162 11.8308 12.475 11.1045 12.0729 10.0114L12.0381 9.91701ZM13.9498 9.32076C14.0626 9.62719 14.3545 9.83081 14.681 9.83081C14.8874 9.83081 15.0854 9.74888 15.2315 9.603L15.4526 9.38219C16.5197 8.31655 18.3228 9.2687 18.0446 10.7509L17.2874 14.7836C17.1098 15.7293 16.284 16.4145 15.3217 16.4145H8.75163C7.78938 16.4145 6.96353 15.7293 6.78597 14.7836L6.02881 10.7509C5.75052 9.2687 7.55367 8.31655 8.62076 9.38219L8.8411 9.60223C8.98766 9.7486 9.18633 9.83081 9.39346 9.83081C9.72109 9.83081 10.0139 9.62651 10.1271 9.31904L10.3676 8.66541C10.9393 7.11153 13.137 7.11153 13.7087 8.66541L13.9498 9.32076Z" fill="url(#paint1_linear_1396_7238)"/>
<defs>
<linearGradient id="paint0_linear_1396_7238" x1="2" y1="3" x2="19.9006" y2="22.8895" gradientUnits="userSpaceOnUse">
<stop stop-color="#FF880A"/>
<stop offset="0.447917" stop-color="#FF5C00"/>
<stop offset="0.786458" stop-color="#FF5C00"/>
<stop offset="1" stop-color="#E45200"/>
</linearGradient>
<linearGradient id="paint1_linear_1396_7238" x1="2" y1="3" x2="19.9006" y2="22.8895" gradientUnits="userSpaceOnUse">
<stop stop-color="#FF880A"/>
<stop offset="0.447917" stop-color="#FF5C00"/>
<stop offset="0.786458" stop-color="#FF5C00"/>
<stop offset="1" stop-color="#E45200"/>
</linearGradient>
</defs>
</svg>
