<svg width="24" height="24" viewBox="0 0 24 24" fill="none" xmlns="http://www.w3.org/2000/svg">
<g clip-path="url(#clip0_2340_15564)">
<g filter="url(#filter0_d_2340_15564)">
<path fill-rule="evenodd" clip-rule="evenodd" d="M18 8H19C20.6569 8 22 9.34315 22 11V19C22 20.6569 20.6569 22 19 22H5C3.34315 22 2 20.6569 2 19V11C2 9.34315 3.34315 8 5 8L6 8C6 4.68629 8.68629 2 12 2C15.3137 2 18 4.68629 18 8ZM8 8L16 8C16 5.79086 14.2091 4 12 4C9.79086 4 8 5.79086 8 8ZM4 11C4 10.4477 4.44772 10 5 10H19C19.5523 10 20 10.4477 20 11V19C20 19.5523 19.5523 20 19 20H5C4.44772 20 4 19.5523 4 19V11Z" fill="white"/>
</g>
<g filter="url(#filter1_d_2340_15564)">
<mask id="path-2-inside-1_2340_15564" fill="white">
<path fill-rule="evenodd" clip-rule="evenodd" d="M13.5 16.3819C14.3967 15.8631 15 14.8936 15 13.7832C15 12.1263 13.6569 10.7832 12 10.7832C10.3431 10.7832 9 12.1263 9 13.7832C9 14.8936 9.6033 15.8631 10.5 16.3819V17.3189C10.5 18.1473 11.1716 18.8189 12 18.8189C12.8284 18.8189 13.5 18.1473 13.5 17.3189V16.3819Z"/>
</mask>
<path d="M13.5 16.3819L12.4986 14.6506L11.5 15.2283V16.3819H13.5ZM10.5 16.3819H12.5V15.2283L11.5015 14.6506L10.5 16.3819ZM13 13.7832C13 14.1508 12.8027 14.4747 12.4986 14.6506L14.5015 18.1131C15.9907 17.2516 17 15.6364 17 13.7832H13ZM12 12.7832C12.5523 12.7832 13 13.2309 13 13.7832H17C17 11.0218 14.7614 8.7832 12 8.7832V12.7832ZM11 13.7832C11 13.2309 11.4477 12.7832 12 12.7832V8.7832C9.23858 8.7832 7 11.0218 7 13.7832H11ZM11.5015 14.6506C11.1973 14.4747 11 14.1508 11 13.7832H7C7 15.6364 8.00927 17.2516 9.49856 18.1131L11.5015 14.6506ZM8.50001 16.3819V17.3189H12.5V16.3819H8.50001ZM8.50001 17.3189C8.50001 19.2519 10.067 20.8189 12 20.8189V16.8189C12.2762 16.8189 12.5 17.0428 12.5 17.3189H8.50001ZM12 20.8189C13.933 20.8189 15.5 19.2519 15.5 17.3189H11.5C11.5 17.0428 11.7239 16.8189 12 16.8189V20.8189ZM15.5 17.3189V16.3819H11.5V17.3189H15.5Z" fill="white" mask="url(#path-2-inside-1_2340_15564)"/>
</g>
</g>
<defs>
<filter id="filter0_d_2340_15564" x="0" y="0" width="24" height="24" filterUnits="userSpaceOnUse" color-interpolation-filters="sRGB">
<feFlood flood-opacity="0" result="BackgroundImageFix"/>
<feColorMatrix in="SourceAlpha" type="matrix" values="0 0 0 0 0 0 0 0 0 0 0 0 0 0 0 0 0 0 127 0" result="hardAlpha"/>
<feOffset/>
<feGaussianBlur stdDeviation="1"/>
<feComposite in2="hardAlpha" operator="out"/>
<feColorMatrix type="matrix" values="0 0 0 0 0.0776389 0 0 0 0 0.139392 0 0 0 0 0.358333 0 0 0 0.2 0"/>
<feBlend mode="normal" in2="BackgroundImageFix" result="effect1_dropShadow_2340_15564"/>
<feBlend mode="normal" in="SourceGraphic" in2="effect1_dropShadow_2340_15564" result="shape"/>
</filter>
<filter id="filter1_d_2340_15564" x="7" y="8.7832" width="10" height="12.0352" filterUnits="userSpaceOnUse" color-interpolation-filters="sRGB">
<feFlood flood-opacity="0" result="BackgroundImageFix"/>
<feColorMatrix in="SourceAlpha" type="matrix" values="0 0 0 0 0 0 0 0 0 0 0 0 0 0 0 0 0 0 127 0" result="hardAlpha"/>
<feOffset/>
<feGaussianBlur stdDeviation="1"/>
<feComposite in2="hardAlpha" operator="out"/>
<feColorMatrix type="matrix" values="0 0 0 0 0.0776389 0 0 0 0 0.139392 0 0 0 0 0.358333 0 0 0 0.2 0"/>
<feBlend mode="normal" in2="BackgroundImageFix" result="effect1_dropShadow_2340_15564"/>
<feBlend mode="normal" in="SourceGraphic" in2="effect1_dropShadow_2340_15564" result="shape"/>
</filter>
<clipPath id="clip0_2340_15564">
<rect width="24" height="24" fill="white"/>
</clipPath>
</defs>
</svg>
