<svg width="24" height="24" viewBox="0 0 24 24" fill="none" xmlns="http://www.w3.org/2000/svg">
<g id="Frame">
<g id="Group 376">
<rect id="Rectangle 100" x="3" y="4" width="18" height="15" rx="5" stroke="#111111" stroke-width="2"/>
<path id="Line 91" d="M6 19.3008L6 4.00078" stroke="#111111" stroke-width="2"/>
<path id="Line 97" d="M18 19.3008L18 4.00078" stroke="#111111" stroke-width="2"/>
<line id="Line 93" y1="-1" x2="3.97075" y2="-1" transform="matrix(-0.75614 0.65441 -0.359414 -0.933178 6.00195 11.332)" stroke="#111111" stroke-width="2"/>
<line id="Line 95" y1="-1" x2="3.97075" y2="-1" transform="matrix(-0.75614 0.65441 -0.359414 -0.933178 20.002 11.332)" stroke="#111111" stroke-width="2"/>
<line id="Line 94" y1="-1" x2="3.97075" y2="-1" transform="matrix(-0.75614 0.65441 -0.359414 -0.933178 6.00195 7)" stroke="#111111" stroke-width="2"/>
<line id="Line 96" y1="-1" x2="3.97075" y2="-1" transform="matrix(-0.75614 0.65441 -0.359414 -0.933178 20.002 7)" stroke="#111111" stroke-width="2"/>
</g>
<path id="Polygon 19" d="M14.5 10.634C15.1667 11.0189 15.1667 11.9811 14.5 12.366L10.75 14.5311C10.0833 14.916 9.25 14.4349 9.25 13.6651L9.25 9.33493C9.25 8.56513 10.0833 8.08401 10.75 8.46891L14.5 10.634Z" fill="#111111"/>
</g>
</svg>
