<svg width="24" height="24" viewBox="0 0 24 24" fill="none" xmlns="http://www.w3.org/2000/svg">
<g id="Icon/24/user_info">
<g id="Vector">
<path fill-rule="evenodd" clip-rule="evenodd" d="M13.9489 8.48386C14.1721 7.99785 14.2962 7.45893 14.2962 6.89167C14.2962 4.74236 12.5139 3 10.3152 3C8.11658 3 6.33422 4.74236 6.33422 6.89167C6.33422 8.1733 6.96798 9.31023 7.94585 10.0193C5.0552 10.8894 2.79547 13.3106 2.04935 16.3627C1.75733 17.5573 2.80397 18.5667 4.06033 18.5667H8.90498C8.6097 17.8735 8.41707 17.1258 8.34623 16.3429H4.41591C5.18167 14.0268 7.07835 12.3777 9.29413 11.9851C10.288 10.2541 11.9613 8.965 13.9489 8.48386ZM12.0214 6.89167C12.0214 7.8128 11.2575 8.55953 10.3152 8.55953C9.37295 8.55953 8.60908 7.8128 8.60908 6.89167C8.60908 5.97054 9.37295 5.22381 10.3152 5.22381C11.2575 5.22381 12.0214 5.97054 12.0214 6.89167Z" fill="#111111"/>
<path fill-rule="evenodd" clip-rule="evenodd" d="M11.4737 15.6667C11.4737 17.9985 13.3588 19.8889 15.6842 19.8889C18.0096 19.8889 19.8947 17.9985 19.8947 15.6667C19.8947 13.3348 18.0096 11.4444 15.6842 11.4444C13.3588 11.4444 11.4737 13.3348 11.4737 15.6667ZM15.6842 9.33333C12.1961 9.33333 9.36842 12.1689 9.36842 15.6667C9.36842 19.1645 12.1961 22 15.6842 22C19.1723 22 22 19.1645 22 15.6667C22 12.1689 19.1723 9.33333 15.6842 9.33333Z" fill="#111111"/>
<path d="M14.6316 16.7222C14.6316 16.1393 15.1029 15.6667 15.6842 15.6667C16.2656 15.6667 16.7368 16.1393 16.7368 16.7222V17.7778C16.7368 18.3607 16.2656 18.8333 15.6842 18.8333C15.1029 18.8333 14.6316 18.3607 14.6316 17.7778V16.7222Z" fill="#111111"/>
<path d="M16.7368 13.5556C16.7368 14.1385 16.2656 14.6111 15.6842 14.6111C15.1029 14.6111 14.6316 14.1385 14.6316 13.5556C14.6316 12.9726 15.1029 12.5 15.6842 12.5C16.2656 12.5 16.7368 12.9726 16.7368 13.5556Z" fill="#111111"/>
</g>
</g>
</svg>
