<svg width="30" height="31" viewBox="0 0 30 31" fill="none" xmlns="http://www.w3.org/2000/svg">
<g id="Group 381">
<circle id="Ellipse 64" cx="15" cy="15.5" r="14" stroke="#F50F00" stroke-width="2"/>
<g id="Group 380">
<path id="Ellipse 65" d="M13.125 21.125C13.125 20.0895 13.9645 19.25 15 19.25C16.0355 19.25 16.875 20.0895 16.875 21.125C16.875 22.1605 16.0355 23 15 23C13.9645 23 13.125 22.1605 13.125 21.125Z" fill="#F50F00"/>
<path id="Rectangle 113" d="M16.875 16.5227C16.875 16.9934 16.4553 17.375 15.9375 17.375L14.0625 17.375C13.5447 17.375 13.125 16.9934 13.125 16.5227L13.125 8.85227C13.125 8.38158 13.5447 8 14.0625 8L15.9375 8C16.4553 8 16.875 8.38158 16.875 8.85227L16.875 16.5227Z" fill="#F50F00"/>
</g>
</g>
</svg>
