<svg width="24" height="24" viewBox="0 0 24 24" fill="none" xmlns="http://www.w3.org/2000/svg">
<mask id="path-1-inside-1_611_2854" fill="white">
<path fill-rule="evenodd" clip-rule="evenodd" d="M20 5.60019C20 3.61197 18.3691 2.00019 16.3572 2.00019C14.3453 2.00019 12.7144 3.61197 12.7144 5.60019C12.7144 5.82229 12.7347 6.03969 12.7737 6.25067L8.62842 8.9817C8.05726 8.61403 7.37528 8.40039 6.64281 8.40039C4.63094 8.40039 3 10.0122 3 12.0004C3 13.9886 4.63094 15.6004 6.64281 15.6004C7.37522 15.6004 8.05714 15.3868 8.62828 15.0192L12.7737 17.7503C12.7347 17.9613 12.7144 18.1787 12.7144 18.4008C12.7144 20.389 14.3453 22.0008 16.3572 22.0008C18.3691 22.0008 20 20.389 20 18.4008C20 16.4126 18.3691 14.8008 16.3572 14.8008C15.2953 14.8008 14.3396 15.2498 13.6737 15.9662L9.94962 13.5126C10.1653 13.0528 10.2856 12.5405 10.2856 12.0004C10.2856 11.4603 10.1653 10.9481 9.94968 10.4883L13.6737 8.03482C14.3396 8.75119 15.2953 9.2002 16.3572 9.2002C18.3691 9.2002 20 7.58842 20 5.60019Z"/>
</mask>
<path d="M12.7737 6.25067L13.874 7.92078L14.9812 7.19133L14.7404 5.88748L12.7737 6.25067ZM8.62842 8.9817L7.54588 10.6634L8.64109 11.3684L9.72875 10.6518L8.62842 8.9817ZM8.62828 15.0192L9.7286 13.3491L8.641 12.6325L7.54581 13.3374L8.62828 15.0192ZM12.7737 17.7503L14.7404 18.1135L14.9812 16.8096L13.874 16.0802L12.7737 17.7503ZM13.6737 15.9662L12.5734 17.6363L13.9865 18.5673L15.1387 17.3278L13.6737 15.9662ZM9.94962 13.5126L8.13889 12.6633L7.40387 14.2304L8.84929 15.1827L9.94962 13.5126ZM9.94968 10.4883L8.84936 8.81822L7.40401 9.77046L8.13892 11.3375L9.94968 10.4883ZM13.6737 8.03482L15.1387 6.67321L13.9865 5.43367L12.5734 6.3647L13.6737 8.03482ZM16.3572 4.00019C17.2868 4.00019 18 4.73876 18 5.60019H22C22 2.48518 19.4513 0.00019455 16.3572 0.00019455V4.00019ZM14.7144 5.60019C14.7144 4.73876 15.4275 4.00019 16.3572 4.00019V0.00019455C13.2631 0.00019455 10.7144 2.48518 10.7144 5.60019H14.7144ZM14.7404 5.88748C14.7235 5.79569 14.7144 5.69985 14.7144 5.60019H10.7144C10.7144 5.94473 10.746 6.28369 10.8069 6.61385L14.7404 5.88748ZM11.6734 4.58055L7.5281 7.31159L9.72875 10.6518L13.874 7.92078L11.6734 4.58055ZM9.71097 7.30001C8.82557 6.73006 7.76928 6.40039 6.64281 6.40039V10.4004C6.98128 10.4004 7.28895 10.498 7.54588 10.6634L9.71097 7.30001ZM6.64281 6.40039C3.54873 6.40039 1 8.88537 1 12.0004H5C5 11.139 5.71316 10.4004 6.64281 10.4004V6.40039ZM1 12.0004C1 15.1154 3.54873 17.6004 6.64281 17.6004V13.6004C5.71316 13.6004 5 12.8618 5 12.0004H1ZM6.64281 17.6004C7.76919 17.6004 8.82539 17.2708 9.71074 16.7009L7.54581 13.3374C7.2889 13.5028 6.98125 13.6004 6.64281 13.6004V17.6004ZM7.52795 16.6893L11.6734 19.4204L13.874 16.0802L9.7286 13.3491L7.52795 16.6893ZM10.8069 17.3871C10.746 17.7173 10.7144 18.0562 10.7144 18.4008H14.7144C14.7144 18.3011 14.7235 18.2053 14.7404 18.1135L10.8069 17.3871ZM10.7144 18.4008C10.7144 21.5158 13.2631 24.0008 16.3572 24.0008V20.0008C15.4275 20.0008 14.7144 19.2622 14.7144 18.4008H10.7144ZM16.3572 24.0008C19.4513 24.0008 22 21.5158 22 18.4008H18C18 19.2622 17.2868 20.0008 16.3572 20.0008V24.0008ZM22 18.4008C22 15.2858 19.4513 12.8008 16.3572 12.8008V16.8008C17.2868 16.8008 18 17.5393 18 18.4008H22ZM16.3572 12.8008C14.7206 12.8008 13.2399 13.4951 12.2088 14.6046L15.1387 17.3278C15.4392 17.0044 15.87 16.8008 16.3572 16.8008V12.8008ZM14.774 14.296L11.0499 11.8425L8.84929 15.1827L12.5734 17.6363L14.774 14.296ZM11.7603 14.3619C12.0978 13.6424 12.2856 12.8406 12.2856 12.0004H8.28562C8.28562 12.2403 8.23272 12.4633 8.13889 12.6633L11.7603 14.3619ZM12.2856 12.0004C12.2856 11.1602 12.0979 10.3586 11.7604 9.63914L8.13892 11.3375C8.23273 11.5376 8.28562 11.7605 8.28562 12.0004H12.2856ZM11.05 12.1584L14.774 9.70493L12.5734 6.3647L8.84936 8.81822L11.05 12.1584ZM16.3572 7.2002C15.87 7.2002 15.4392 6.99655 15.1387 6.67321L12.2088 9.39642C13.2399 10.5058 14.7206 11.2002 16.3572 11.2002V7.2002ZM18 5.60019C18 6.46163 17.2868 7.2002 16.3572 7.2002V11.2002C19.4513 11.2002 22 8.71521 22 5.60019H18Z" fill="#111111" mask="url(#path-1-inside-1_611_2854)"/>
</svg>
