<svg width="16" height="20" viewBox="0 0 16 20" fill="none" xmlns="http://www.w3.org/2000/svg">
<g id="Group 501">
<rect id="Rectangle 282" x="1" y="6" width="14" height="4" rx="1" stroke="#111111" stroke-width="2"/>
<path id="Rectangle 283" d="M2 10H14V18C14 18.5523 13.5523 19 13 19H3C2.44772 19 2 18.5523 2 18V10Z" stroke="#111111" stroke-width="2"/>
<path id="Ellipse 162" d="M6.52548 2.40379C6.83486 2.71317 7.19935 3.36759 7.36616 4.06983C7.54711 4.83157 7.40292 5.20331 7.3033 5.30292C7.20368 5.40254 6.83194 5.54673 6.0702 5.36578C5.36797 5.19897 4.71354 4.83449 4.40416 4.52511C3.88436 4.0053 3.8616 3.08777 4.47487 2.4745C5.08814 1.86123 6.00568 1.88398 6.52548 2.40379Z" stroke="#111111" stroke-width="2"/>
<path id="Ellipse 163" d="M11.3736 4.52548C11.0642 4.83486 10.4098 5.19935 9.70752 5.36616C8.94578 5.54711 8.57404 5.40292 8.47442 5.3033C8.3748 5.20368 8.23061 4.83194 8.41156 4.0702C8.57838 3.36797 8.94286 2.71354 9.25224 2.40416C9.77204 1.88436 10.6896 1.8616 11.3028 2.47487C11.9161 3.08814 11.8934 4.00568 11.3736 4.52548Z" stroke="#111111" stroke-width="2"/>
<line id="Line 86" x1="8" y1="6" x2="8" y2="19" stroke="#111111" stroke-width="2"/>
</g>
</svg>
