<svg width="24" height="24" viewBox="0 0 24 24" fill="none" xmlns="http://www.w3.org/2000/svg">
<mask id="path-1-inside-1_2347_16336" fill="white">
<path fill-rule="evenodd" clip-rule="evenodd" d="M9.5086 3C8.61564 3 7.83087 3.59196 7.58555 4.45056L7.14286 6H6C3.79086 6 2 7.79086 2 10V16C2 18.2091 3.79086 20 6 20H18C20.2091 20 22 18.2091 22 16V10C22 7.79086 20.2091 6 18 6H16.8571L16.4144 4.45056C16.1691 3.59195 15.3844 3 14.4914 3H9.5086Z"/>
</mask>
<path d="M7.58555 4.45056L9.5086 5V5L7.58555 4.45056ZM7.14286 6V8H8.65146L9.06591 6.54944L7.14286 6ZM16.8571 6L14.9341 6.54944L15.3485 8H16.8571V6ZM16.4144 4.45056L14.4914 5V5L16.4144 4.45056ZM9.5086 5L9.5086 5V1C7.72268 1 6.15314 2.18391 5.66251 3.90112L9.5086 5ZM9.06591 6.54944L9.5086 5L5.66251 3.90112L5.21981 5.45056L9.06591 6.54944ZM6 8H7.14286V4H6V8ZM4 10C4 8.89543 4.89543 8 6 8V4C2.68629 4 0 6.68629 0 10H4ZM4 16V10H0V16H4ZM6 18C4.89543 18 4 17.1046 4 16H0C0 19.3137 2.68629 22 6 22V18ZM18 18H6V22H18V18ZM20 16C20 17.1046 19.1046 18 18 18V22C21.3137 22 24 19.3137 24 16H20ZM20 10V16H24V10H20ZM18 8C19.1046 8 20 8.89543 20 10H24C24 6.68629 21.3137 4 18 4V8ZM16.8571 8H18V4H16.8571V8ZM14.4914 5L14.9341 6.54944L18.7802 5.45056L18.3375 3.90112L14.4914 5ZM14.4914 5V5L18.3375 3.90112C17.8469 2.18391 16.2773 1 14.4914 1V5ZM9.5086 5H14.4914V1H9.5086V5Z" fill="#585858" mask="url(#path-1-inside-1_2347_16336)"/>
<circle cx="12" cy="13" r="3" stroke="#585858" stroke-width="2"/>
</svg>
