<svg width="12" height="11" viewBox="0 0 12 11" fill="none" xmlns="http://www.w3.org/2000/svg">
<g id="heart">
<path id="Vector" d="M11.9172 2.6895C11.7377 1.738 11.0905 0 8.71907 0C6.67944 0 6.12466 1.782 5.99956 2.75C5.87446 1.782 5.31968 0 3.28005 0C0.914071 0 0.261387 1.738 0.0818996 2.6895C0.0220704 3.025 -0.0268809 3.5145 0.0166313 3.85C0.0818996 4.356 0.0166313 4.4 0.560534 5.5C1.77888 7.9585 5.99956 11 5.99956 11C5.99956 11 10.2202 7.9585 11.4386 5.5C11.9825 4.4 11.9172 4.356 11.9825 3.85C12.026 3.5145 11.9825 3.0195 11.9172 2.6895Z" fill="#404040"/>
</g>
</svg>
