<svg width="24" height="24" viewBox="0 0 24 24" fill="none" xmlns="http://www.w3.org/2000/svg">
<g id="Icon/more">
<g id="Group 376">
<rect id="Rectangle 100" x="3" y="4" width="18" height="15" rx="5" stroke="#585858" stroke-width="2"/>
</g>
<g id="Group 360">
<path id="Union" d="M10.9481 14.3638C10.9532 14.344 10.9559 14.3232 10.9559 14.3018V10.3286L14.6912 9.29889V11.563C14.5172 11.5248 14.3348 11.5046 14.1471 11.5046C13.04 11.5046 12.0441 12.2331 12.0441 13.2405C12.0441 14.2479 13.04 14.9764 14.1471 14.9764C15.1247 14.9764 16.0035 14.4151 16.2068 13.5932C16.2341 13.5532 16.25 13.5048 16.25 13.4527V13.2405V9.57878V9.2073V7.84977C16.25 7.44679 16.002 7.12571 15.6804 6.94166C15.3582 6.75724 14.9389 6.69322 14.5305 6.80579L10.2952 7.97328C9.7916 8.11211 9.39706 8.51187 9.39706 9.01726V10.4809V11.33V12.8366C9.22311 12.7984 9.04066 12.7782 8.85294 12.7782C7.74585 12.7782 6.75 13.5067 6.75 14.5141C6.75 15.5215 7.74585 16.25 8.85294 16.25C9.96003 16.25 10.9559 15.5215 10.9559 14.5141C10.9559 14.4635 10.9533 14.4134 10.9481 14.3638Z" fill="#585858" stroke="#585858" stroke-width="0.5" stroke-linejoin="round"/>
</g>
</g>
</svg>
