<svg width="11" height="12" viewBox="0 0 11 12" fill="none" xmlns="http://www.w3.org/2000/svg">
<g id="Group 523">
<path id="Subtract" fill-rule="evenodd" clip-rule="evenodd" d="M2.77344 9.95419C3.00978 10.7953 3.78241 11.412 4.69908 11.412H8.99991C10.1045 11.412 10.9999 10.5166 10.9999 9.41202V5.11119C10.9999 4.19452 10.3832 3.42189 9.54208 3.18555C9.59052 3.35797 9.61644 3.53981 9.61644 3.72772V4.3238C9.8499 4.50686 9.99991 4.79151 9.99991 5.11119V9.41202C9.99991 9.9643 9.55219 10.412 8.99991 10.412H4.69908C4.3794 10.412 4.09475 10.262 3.91169 10.0285H3.31561C3.12771 10.0285 2.94586 10.0026 2.77344 9.95419Z" fill="#111111"/>
<rect id="Rectangle 297" x="0.677734" y="1.08789" width="7.30083" height="7.30083" rx="1.5" stroke="#111111"/>
</g>
</svg>
