<svg width="46" height="18" viewBox="0 0 46 18" fill="none" xmlns="http://www.w3.org/2000/svg">
<rect y="0.904297" width="45.5724" height="16.1919" rx="8.09596" fill="#0F0AE3" fill-opacity="0.12"/>
<path fill-rule="evenodd" clip-rule="evenodd" d="M13.9018 8.99029C14.1726 9.04445 14.436 8.86884 14.4902 8.59806C14.5443 8.32728 14.3687 8.06387 14.098 8.00971C12.429 7.67592 11.9999 6.21064 11.9999 5.5C11.9999 5.22386 11.776 5 11.4999 5C11.2238 5 10.9999 5.22386 10.9999 5.5L10.9999 9.26751C10.7058 9.09737 10.3642 9 10 9C8.89543 9 8 9.89543 8 11C8 12.1046 8.89543 13 10 13C11.1046 13 12 12.1046 12 11C12 10.9934 12 10.9868 11.9999 10.9802L11.9999 7.9767C12.4392 8.43939 13.0542 8.82076 13.9018 8.99029Z" fill="url(#paint0_linear_3102_14710)"/>
<path d="M19.2206 6.99373C19.2207 7.29322 19.2885 7.58037 19.4238 7.85518C19.5618 8.12997 19.7593 8.37427 20.0165 8.58807C20.2737 8.80187 20.5773 8.96576 20.9273 9.07975L20.5576 9.66129C20.1657 9.52945 19.8241 9.33465 19.5327 9.07689C19.2438 8.81911 19.021 8.51645 18.8642 8.16891C18.714 8.55051 18.4905 8.88591 18.1937 9.17509C17.8994 9.46166 17.5498 9.67841 17.1449 9.82535L16.7412 9.2509C17.0968 9.12524 17.4064 8.94662 17.6699 8.71503C17.9334 8.48344 18.1341 8.21987 18.2721 7.92432C18.41 7.62617 18.4787 7.31564 18.4784 6.99271L18.4767 6.80522L16.9377 6.81931L16.9322 6.21777L20.7211 6.18308L20.7266 6.78462L19.2188 6.79842L19.2206 6.99373ZM17.6806 10.3127L22.3054 10.2703L22.3277 12.7077L21.5856 12.7145L21.5688 10.8786L17.6861 10.9142L17.6806 10.3127ZM21.5215 5.7148L22.2637 5.708L22.2801 7.5048L23.2957 7.4955L23.3014 8.12048L22.2858 8.12977L22.3023 9.92657L21.5601 9.93337L21.5215 5.7148ZM30.088 9.52715L23.7211 9.58544L23.7156 8.98391L26.2702 8.96052L26.2575 7.57776L26.984 7.57111L26.9967 8.95387L30.0825 8.92561L30.088 9.52715ZM24.3997 10.3214L29.2823 10.2767L29.304 12.6438L28.554 12.6507L28.5378 10.8773L24.4052 10.9152L24.3997 10.3214ZM24.4311 6.06317L29.2668 6.0189L29.2715 6.5345L29.2723 6.62044C29.2704 6.97724 29.2602 7.29375 29.2419 7.56997C29.2236 7.84359 29.1821 8.14997 29.1175 8.48912L28.3669 8.42568C28.4393 8.08646 28.4847 7.78134 28.5031 7.51033C28.524 7.23669 28.533 6.93711 28.53 6.61161L24.4364 6.64909L24.4311 6.06317ZM36.0699 8.37078L37.1557 8.36083L37.1614 8.978L36.0755 8.98794L36.1083 12.5737L35.3662 12.5805L35.3022 5.58862L36.0443 5.58183L36.0699 8.37078ZM30.6462 10.7565C31.5171 10.311 32.188 9.77096 32.6588 9.13641C33.1321 8.50184 33.4028 7.77538 33.4709 6.95701L30.9632 6.97997L30.9575 6.36281L34.223 6.33291C34.2276 7.40062 33.9772 8.36259 33.472 9.21881C32.9668 10.0724 32.1646 10.7764 31.0655 11.3308L30.6462 10.7565Z" fill="#0300A7"/>
<defs>
<linearGradient id="paint0_linear_3102_14710" x1="13.3828" y1="11.875" x2="7.36262" y2="6.88377" gradientUnits="userSpaceOnUse">
<stop stop-color="#0F0AE3"/>
<stop offset="1" stop-color="#3E82F1"/>
</linearGradient>
</defs>
</svg>
