<svg width="18" height="17" viewBox="0 0 18 17" fill="none" xmlns="http://www.w3.org/2000/svg">
<g id="Group 502">
<g id="Union">
<mask id="path-1-inside-1_2930_7813" fill="white">
<path fill-rule="evenodd" clip-rule="evenodd" d="M8.41542 0.019417C8.60937 0.00657746 8.80432 0 9 0C9.20648 0 9.41133 0.00657746 9.61434 0.019417H10.8421C14.6121 0.019417 17.7014 2.93399 17.9796 6.63281C17.9931 6.76764 18 6.90179 18 7.03493C18 7.05881 17.9999 7.08266 17.9997 7.10649C17.9999 7.13007 18 7.15368 18 7.17731C18 11.1305 14.7953 14.3352 10.8421 14.3352H8.27955L3.496 16.9366C3.213 17.1248 2.844 16.8651 2.933 16.538L2.93106 12.9545C2.75603 12.8263 2.58705 12.6902 2.42462 12.5469C0.618119 11.352 0.0768353 9.55321 0.0078887 7.51637C0.00264903 7.40401 0 7.29097 0 7.17731C0 7.15797 7.66903e-05 7.13865 0.000229783 7.11935C7.59293e-05 7.09125 0 7.06311 0 7.03493C0 6.91642 0.00579585 6.79713 0.0171954 6.67726C0.2739 2.95736 3.3728 0.019417 7.1579 0.019417H8.41542Z"/>
</mask>
<path d="M8.41542 0.019417V2.01942H8.48155L8.54754 2.01505L8.41542 0.019417ZM9.61434 0.019417L9.4881 2.01543L9.55116 2.01942H9.61434V0.019417ZM17.9796 6.63281L15.9852 6.78282L15.9871 6.80767L15.9896 6.83246L17.9796 6.63281ZM17.9997 7.10649L15.9997 7.08727L15.9996 7.10658L15.9998 7.1259L17.9997 7.10649ZM8.27955 14.3352V12.3352H7.7709L7.32406 12.5782L8.27955 14.3352ZM3.496 16.9366L2.54052 15.1796L2.46241 15.222L2.38838 15.2713L3.496 16.9366ZM2.933 16.538L4.86285 17.063L4.93315 16.8046L4.933 16.5369L2.933 16.538ZM2.93106 12.9545L4.93106 12.9534L4.93051 11.9403L4.11331 11.3414L2.93106 12.9545ZM2.42462 12.5469L3.74771 11.0471L3.6437 10.9554L3.52803 10.8788L2.42462 12.5469ZM0.0078887 7.51637L2.00674 7.44871L2.00631 7.43595L2.00572 7.42321L0.0078887 7.51637ZM0.000229783 7.11935L2.00017 7.13521L2.00027 7.12181L2.0002 7.1084L0.000229783 7.11935ZM0.0171954 6.67726L2.00821 6.8666L2.01067 6.8408L2.01245 6.81495L0.0171954 6.67726ZM9 -2C8.7595 -2 8.52048 -1.99192 8.28331 -1.97621L8.54754 2.01505C8.69826 2.00507 8.84915 2 9 2V-2ZM9.74058 -1.97659C9.49592 -1.99207 9.24896 -2 9 -2V2C9.16399 2 9.32675 2.00522 9.4881 2.01543L9.74058 -1.97659ZM9.61434 2.01942H10.8421V-1.98058H9.61434V2.01942ZM10.8421 2.01942C13.5578 2.01942 15.7849 4.11952 15.9852 6.78282L19.974 6.4828C19.6179 1.74846 15.6664 -1.98058 10.8421 -1.98058V2.01942ZM20 7.03493C20 6.83293 19.9896 6.63213 19.9696 6.43317L15.9896 6.83246C15.9967 6.90316 16 6.97064 16 7.03493H20ZM19.9996 7.1257C19.9999 7.09545 20 7.0652 20 7.03493H16C16 7.05242 15.9999 7.06987 15.9997 7.08727L19.9996 7.1257ZM15.9998 7.1259C15.9999 7.14299 16 7.16013 16 7.17731H20C20 7.14722 19.9999 7.11714 19.9996 7.08707L15.9998 7.1259ZM16 7.17731C16 10.0259 13.6907 12.3352 10.8421 12.3352V16.3352C15.8999 16.3352 20 12.2351 20 7.17731H16ZM10.8421 12.3352H8.27955V16.3352H10.8421V12.3352ZM4.45148 18.6936L9.23503 16.0922L7.32406 12.5782L2.54052 15.1796L4.45148 18.6936ZM1.00315 16.0129C0.409738 18.1941 2.84439 19.7719 4.60362 18.6019L2.38838 15.2713C3.58161 14.4776 5.27826 15.5361 4.86285 17.063L1.00315 16.0129ZM0.931058 12.9556L0.933 16.539L4.933 16.5369L4.93106 12.9534L0.931058 12.9556ZM4.11331 11.3414C3.98701 11.2488 3.86502 11.1506 3.74771 11.0471L1.10153 14.0467C1.30908 14.2298 1.52505 14.4037 1.74881 14.5677L4.11331 11.3414ZM-1.99097 7.58403C-1.9114 9.93448 -1.25354 12.5119 1.32122 14.215L3.52803 10.8788C2.48978 10.1921 2.06507 9.17193 2.00674 7.44871L-1.99097 7.58403ZM2.00572 7.42321C2.00192 7.34186 2 7.25989 2 7.17731H-2C-2 7.32205 -1.99663 7.46615 -1.98994 7.60953L2.00572 7.42321ZM2 7.17731C2 7.16326 2.00006 7.14923 2.00017 7.13521L-1.99971 7.10349C-1.9999 7.12808 -2 7.15269 -2 7.17731H2ZM-2 7.03493C-2 7.0667 -1.99991 7.09849 -1.99974 7.1303L2.0002 7.1084C2.00007 7.084 2 7.05951 2 7.03493H-2ZM-1.97382 6.48791C-1.99101 6.66869 -2 6.85119 -2 7.03493H2C2 6.98165 2.0026 6.92557 2.00821 6.8666L-1.97382 6.48791ZM2.01245 6.81495C2.19729 4.13639 4.43123 2.01942 7.1579 2.01942V-1.98058C2.31437 -1.98058 -1.64949 1.77833 -1.97806 6.53957L2.01245 6.81495ZM7.1579 2.01942H8.41542V-1.98058H7.1579V2.01942Z" fill="#111111" mask="url(#path-1-inside-1_2930_7813)"/>
</g>
<path id="?" d="M8.02642 8.31349C8.02642 7.90544 8.05577 7.57613 8.11448 7.32557C8.17319 7.07143 8.25799 6.8692 8.36888 6.71886C8.48304 6.56852 8.63633 6.42356 8.82877 6.28396C9.08969 6.09783 9.28213 5.93139 9.40607 5.78463C9.53327 5.63788 9.5985 5.46427 9.60176 5.26383C9.5985 5.06696 9.53327 4.90767 9.40607 4.78597C9.28213 4.66069 9.12883 4.59805 8.94618 4.59805C8.81898 4.59805 8.69993 4.63027 8.58904 4.6947C8.47815 4.75913 8.39008 4.8504 8.32485 4.96852C8.25962 5.08665 8.22538 5.22087 8.22211 5.37121H6.5C6.50652 4.84146 6.61905 4.40119 6.83757 4.0504C7.0561 3.69962 7.34801 3.44011 7.71331 3.27188C8.08187 3.10365 8.49609 3.01953 8.95597 3.01953C9.45173 3.01953 9.89041 3.10007 10.272 3.26114C10.6569 3.42222 10.9569 3.66383 11.1722 3.98597C11.3907 4.30454 11.5 4.6947 11.5 5.15644C11.5 5.58955 11.4038 5.95465 11.2114 6.25175C11.0189 6.54884 10.7401 6.81371 10.3748 7.04638C10.104 7.22535 9.90835 7.4079 9.78767 7.59403C9.67025 7.77658 9.61155 8.0164 9.61155 8.31349V8.4853H8.02642V8.31349ZM7.88943 9.97792C7.88943 9.79179 7.93183 9.61998 8.01663 9.46248C8.10144 9.30499 8.21559 9.17971 8.3591 9.08665C8.50587 8.99358 8.66569 8.94705 8.83855 8.94705C9.00163 8.94705 9.15493 8.99358 9.29843 9.08665C9.44521 9.17971 9.56262 9.30499 9.65068 9.46248C9.74201 9.61998 9.78767 9.79179 9.78767 9.97792C9.78767 10.1676 9.74364 10.343 9.65558 10.5041C9.56751 10.6616 9.4501 10.7869 9.30333 10.8799C9.15656 10.973 9.00163 11.0195 8.83855 11.0195C8.66569 11.0195 8.50587 10.973 8.3591 10.8799C8.21559 10.7869 8.10144 10.6616 8.01663 10.5041C7.93183 10.343 7.88943 10.1676 7.88943 9.97792Z" fill="black"/>
</g>
</svg>
