<svg width="24" height="24" viewBox="0 0 24 24" fill="none" xmlns="http://www.w3.org/2000/svg">
<path d="M20.8758 7.61111C20.6066 6.12488 19.6357 3.41016 16.0786 3.41016C13.0192 3.41016 12.187 6.19361 11.9993 7.70561C11.8117 6.19361 10.9795 3.41016 7.92007 3.41016C4.37111 3.41016 3.39208 6.12488 3.12285 7.61111C3.03311 8.13516 2.95968 8.89975 3.02495 9.42379C3.12285 10.2142 3.02495 10.2829 3.8408 12.0011C5.66831 15.8412 11.9993 20.592 11.9993 20.592C11.9993 20.592 18.3304 15.8412 20.1579 12.0011C20.9737 10.2829 20.8758 10.2142 20.9737 9.42379C21.039 8.89975 20.9737 8.12657 20.8758 7.61111Z" stroke="#111111" stroke-width="2" stroke-linecap="round" stroke-linejoin="round"/>
</svg>
