<svg width="17" height="18" viewBox="0 0 17 18" fill="none" xmlns="http://www.w3.org/2000/svg">
<g id="Group 500">
<g id="Union">
<mask id="path-1-inside-1_2930_13940" fill="white">
<path fill-rule="evenodd" clip-rule="evenodd" d="M2 0C0.895431 0 0 0.895432 0 2V11.7724C0 12.877 0.89543 13.7724 2 13.7724H6.04626L7.63548 16.506C8.02104 17.1692 8.97896 17.1692 9.36452 16.506L10.9537 13.7724H15C16.1046 13.7724 17 12.877 17 11.7724V2C17 0.895431 16.1046 0 15 0H2Z"/>
</mask>
<path d="M6.04626 13.7724L7.7753 12.7672L7.19696 11.7724H6.04626V13.7724ZM7.63548 16.506L5.90644 17.5112L5.90644 17.5112L7.63548 16.506ZM9.36452 16.506L7.63548 15.5008L9.36452 16.506ZM10.9537 13.7724V11.7724H9.80304L9.2247 12.7672L10.9537 13.7724ZM2 2V2V-2C-0.209141 -2 -2 -0.209135 -2 2H2ZM2 11.7724V2H-2V11.7724H2ZM2 11.7724H2H-2C-2 13.9816 -0.209139 15.7724 2 15.7724V11.7724ZM6.04626 11.7724H2V15.7724H6.04626V11.7724ZM9.36452 15.5008L7.7753 12.7672L4.31722 14.7776L5.90644 17.5112L9.36452 15.5008ZM7.63548 15.5008C8.02104 14.8376 8.97896 14.8376 9.36452 15.5008L5.90644 17.5112C7.06312 19.5008 9.93688 19.5008 11.0936 17.5112L7.63548 15.5008ZM9.2247 12.7672L7.63548 15.5008L11.0936 17.5112L12.6828 14.7776L9.2247 12.7672ZM15 11.7724H10.9537V15.7724H15V11.7724ZM15 11.7724V11.7724V15.7724C17.2091 15.7724 19 13.9815 19 11.7724H15ZM15 2V11.7724H19V2H15ZM15 2H19C19 -0.209138 17.2091 -2 15 -2V2ZM2 2H15V-2H2V2Z" fill="#111111" mask="url(#path-1-inside-1_2930_13940)"/>
</g>
<path id="Line 84" d="M5 5H12" stroke="#111111" stroke-width="2" stroke-linecap="round"/>
<path id="Line 85" d="M5 8H12" stroke="#111111" stroke-width="2" stroke-linecap="round"/>
</g>
</svg>
