<svg width="24" height="24" viewBox="0 0 24 24" fill="none" xmlns="http://www.w3.org/2000/svg">
<path d="M5.25 14.25C6.49264 14.25 7.5 13.2426 7.5 12C7.5 10.7574 6.49264 9.75 5.25 9.75C4.00736 9.75 3 10.7574 3 12C3 13.2426 4.00736 14.25 5.25 14.25Z" fill="#111111"/>
<path d="M12 14.25C13.2426 14.25 14.25 13.2426 14.25 12C14.25 10.7574 13.2426 9.75 12 9.75C10.7574 9.75 9.75 10.7574 9.75 12C9.75 13.2426 10.7574 14.25 12 14.25Z" fill="#111111"/>
<path d="M18.75 14.25C19.9926 14.25 21 13.2426 21 12C21 10.7574 19.9926 9.75 18.75 9.75C17.5074 9.75 16.5 10.7574 16.5 12C16.5 13.2426 17.5074 14.25 18.75 14.25Z" fill="#111111"/>
</svg>
