<svg width="30" height="30" viewBox="0 0 30 30" fill="none" xmlns="http://www.w3.org/2000/svg">
<path fill-rule="evenodd" clip-rule="evenodd" d="M6.81144 24.8458C8.23063 21.3987 11.3614 19.0001 15 19.0001C18.6386 19.0001 21.7693 21.3986 23.1885 24.8457C25.265 22.7577 26.5483 19.88 26.5483 16.7026C26.5483 10.3246 21.3779 5.1543 15 5.1543C8.62201 5.1543 3.45166 10.3246 3.45166 16.7026C3.45166 19.88 4.73492 22.7578 6.81144 24.8458ZM15 18.1543C17.2091 18.1543 19 16.3634 19 14.1543C19 11.9452 17.2091 10.1543 15 10.1543C12.7909 10.1543 11 11.9452 11 14.1543C11 16.3634 12.7909 18.1543 15 18.1543Z" fill="#B7B7B7"/>
</svg>
