<svg width="128" height="124" viewBox="0 0 128 124" fill="none" xmlns="http://www.w3.org/2000/svg">
<path d="M2.84877 38.1878C2.84639 37.6592 2.94182 37.3109 3.13269 37.037C3.32595 36.8159 3.61464 36.6165 4.09658 36.4579L30.563 27.8471C30.5106 27.071 30.3626 26.5377 30.0716 26.3142C29.7328 26.1076 29.2961 26.0908 28.7641 26.2638L4.61432 34.1202C4.13237 34.2764 3.8413 34.3196 3.64804 34.1707C3.45478 34.0746 3.35458 33.7358 3.35219 33.2096L3.32833 28.5102C3.32595 27.9816 3.42138 27.6332 3.61225 27.3594C3.80551 27.1383 4.0942 26.9389 4.57614 26.7803L34.4735 17.0547C36.2128 16.4877 37.5202 16.5934 38.3935 17.2613C39.2691 17.9821 39.7105 19.4236 39.7224 21.6412C39.7319 23.3302 39.6938 25.3003 39.7033 27.4651L39.4504 34.5287L42.0104 33.695C42.4447 33.5532 42.7835 33.5484 42.9767 33.6445C43.17 33.7935 43.2702 34.0794 43.2726 34.6055L43.2964 39.2521C43.2988 39.7807 43.2034 40.1819 43.0125 40.403C42.8193 40.6769 42.4829 40.8403 42.0486 40.982L1.28603 54.2467C0.804082 54.4028 0.513006 54.4461 0.31975 54.2971C0.126495 54.201 0.0262882 53.8647 0.0239024 53.3361L4.36483e-05 48.6895C-0.00234222 48.1609 0.0930926 47.8126 0.283962 47.5387C0.477218 47.3176 0.765908 47.1182 1.24785 46.9596L30.3245 37.5007C30.3245 37.1307 30.3698 36.7463 30.4151 36.3594L30.4103 35.2494L4.13714 43.7978C3.6552 43.954 3.36412 43.9973 3.17087 43.8483C2.97761 43.7522 2.8774 43.4158 2.87502 42.8873L2.85116 38.1878H2.84877ZM40.9082 62.9897C40.9583 63.3957 40.8628 63.6912 40.6696 63.8594C40.4286 64.0444 40.0898 64.2054 39.6556 64.4529C37.4344 65.3875 35.2632 66.3053 33.1875 67.1389C31.0641 67.9366 28.9383 68.7847 26.7647 69.5992L19.86 72.0042C17.3978 72.8066 14.6922 73.7388 11.7934 74.6807C10.2951 75.1684 8.99239 75.4327 7.92829 75.5144C6.81648 75.56 5.89553 75.4351 5.21556 75.0218C4.48787 74.623 3.95105 73.9527 3.65758 73.0421C3.2663 72.1123 3.1136 70.8918 3.10645 69.4118L3.08259 64.6066C3.0802 64.1309 3.17564 63.7825 3.36651 63.5086C3.55976 63.2876 3.84845 63.0882 4.3304 62.9296L31.9087 53.956L31.9015 52.3727L4.32324 61.3463C3.45478 61.6298 3.06589 61.279 3.05873 60.2243L3.04441 57.2667C3.04203 56.7382 3.13746 56.3898 3.32833 56.1159C3.52159 55.8948 3.81028 55.6954 4.29222 55.5369L38.9708 44.2543C39.4051 44.1126 39.7439 44.1078 39.9371 44.2039C40.1304 44.3528 40.2306 44.6363 40.233 45.1649L40.2878 55.6738C40.2902 56.2024 40.1948 56.5508 40.0039 56.8246C39.8107 57.0457 39.4743 57.2619 39.04 57.4037L11.4618 66.3773L11.4665 67.223C11.4689 67.7516 11.6646 68.0567 12.0511 68.0904C12.4376 68.0711 13.0174 67.9342 13.8381 67.6675C16.5437 66.7882 19.0059 65.9328 21.325 65.1784L27.8455 62.8984C29.8735 62.132 31.8061 61.452 33.7362 60.7168C35.571 60.0153 37.4534 59.2441 39.386 58.456C39.8202 58.2614 40.1113 58.2206 40.2091 58.4007C40.3069 58.4752 40.357 58.7227 40.4549 59.1143L40.9106 62.9849L40.9082 62.9897Z" fill="#111111"/>
<path d="M72.3713 19.7462C72.3737 20.2747 72.2783 20.676 72.0874 20.897C71.8941 21.1709 71.5577 21.3343 71.1235 21.476L57.0206 26.065C56.6341 26.1899 56.4409 26.3581 56.3454 26.495C56.25 26.7377 56.2023 27.0164 56.2047 27.3864V27.915C56.2118 28.5492 56.3573 28.8712 56.6484 28.8832C56.8918 29.0153 57.326 28.9265 57.9535 28.7222C59.4995 28.2201 60.9478 27.7492 62.2528 27.2182C63.5078 26.8098 64.6673 26.3797 65.8269 25.8968C66.9363 25.4835 68.0481 25.015 69.1098 24.5105C70.1715 24.0588 71.2834 23.5927 72.4882 23.093C72.9224 22.8984 73.2135 22.8575 73.4068 22.9536C73.5523 23.117 73.6525 23.4558 73.7503 23.9531L74.1607 28.6333C74.2108 29.1451 74.1178 29.5463 73.9245 29.7145C73.6835 29.9524 73.3471 30.1662 72.9129 30.3608C69.7278 31.7135 66.7812 32.8835 63.9802 33.9022C61.1315 35.041 58.1849 36.0525 55.1429 37.0424C53.5969 37.5445 52.2918 37.8641 51.2778 37.9289C50.2137 38.0635 49.3906 37.9602 48.7607 37.5854C48.0808 37.2778 47.6441 36.6267 47.396 35.7017C47.1026 34.8464 46.9499 33.6259 46.9427 32.0402L46.9021 24.0132C46.8998 23.4846 46.9952 23.1362 47.1861 22.8623C47.3793 22.6413 47.668 22.4419 48.15 22.2833L62.2051 17.7112C62.5439 17.6007 62.7849 17.4709 62.928 17.2643C63.0235 17.1274 63.0712 16.8991 63.0688 16.5844L63.064 15.8444C63.064 15.5272 63.0115 15.2798 62.9161 15.2053C62.8183 15.1308 62.5773 15.1572 62.2862 15.2509L48.1356 19.8543C47.6537 20.0105 47.3626 20.0537 47.1694 19.9047C46.9761 19.8086 46.8759 19.4699 46.8735 18.9437L46.8497 14.35C46.8473 13.8214 46.9427 13.473 47.1336 13.1991C47.3268 12.9781 47.6155 12.7787 48.0975 12.6201L67.6091 6.27248C69.3484 5.70787 70.5581 5.78956 71.2881 6.45027C71.9681 7.18066 72.3141 8.49728 72.3236 10.3977L72.3713 19.7438V19.7462ZM88.025 43.587C88.0369 45.8046 87.6099 47.5297 86.7462 48.8175C85.8825 50.05 84.5798 51.0038 82.8405 51.5684L55.1167 60.5877C53.3774 61.1523 52.0699 61.049 51.1967 60.3811C50.3211 59.6603 49.8797 58.2188 49.8678 56.0012L49.7986 42.4842C49.7962 41.9557 49.8916 41.6073 50.0825 41.3334C50.2758 41.1124 50.5645 40.9129 51.0464 40.7544L57.808 38.5536C58.2422 38.4119 58.581 38.407 58.7742 38.5032C58.9675 38.6521 59.0677 38.938 59.0701 39.4642L59.0796 41.4703L78.6891 35.0915L78.6796 33.0853C78.6772 32.5568 78.7726 32.2084 78.9635 31.9345C79.1567 31.7134 79.4454 31.514 79.9274 31.3555L86.6889 29.1547C87.1231 29.0129 87.4619 29.0081 87.6552 29.1042C87.8485 29.2532 87.9487 29.5391 87.951 30.0653L88.0202 43.5822L88.025 43.587ZM77.3435 45.7926C77.8755 45.6196 78.2596 45.389 78.4529 45.1151C78.6438 44.7883 78.7392 44.2814 78.7344 43.6471L78.7273 42.3785L59.1178 48.7574L59.125 50.026C59.1273 50.6602 59.2276 51.1047 59.4208 51.3041C59.6141 51.4531 59.9529 51.4483 60.5326 51.2585L77.3411 45.7902L77.3435 45.7926ZM73.6907 13.0766C73.6883 12.548 73.7837 12.1997 73.9746 11.9258C74.1679 11.7047 74.4566 11.5053 74.9385 11.3467L78.5603 10.1671L78.5292 4.04048C78.5269 3.51191 78.6223 3.16354 78.8132 2.88964C79.0064 2.6686 79.2951 2.46919 79.7771 2.31062L86.541 0.114657C86.9752 -0.0270952 87.314 -0.0319004 87.5073 0.064203C87.7005 0.213163 87.8007 0.496668 87.8031 1.02524L87.9296 25.3154C87.932 25.8439 87.8365 26.2452 87.6457 26.4662C87.4524 26.7401 87.116 26.9035 86.6818 27.0452L79.9202 29.246C79.4383 29.4022 79.1472 29.4454 78.9539 29.2965C78.7607 29.2003 78.6605 28.8616 78.6581 28.3354L78.608 18.9365L74.9862 20.1162C74.5043 20.2723 74.2132 20.3156 74.0199 20.1666C73.8267 20.0705 73.7265 19.7342 73.7241 19.2056L73.6931 13.0814L73.6907 13.0766Z" fill="#111111"/>
<path d="M58.38 119.61C57.8981 119.766 57.607 119.756 57.4138 119.66C57.2205 119.511 57.1203 119.228 57.1179 118.699L57.0082 97.6307L54.5459 98.4308L54.6151 111.897C54.6271 114.115 54.2 115.84 53.3363 117.128C52.4726 118.36 51.1699 119.314 49.433 119.879L38.9996 123.274C37.2603 123.838 35.9552 123.735 35.0796 123.067C34.204 122.346 33.7626 120.905 33.7507 118.687L33.5479 79.8228C33.5455 79.2942 33.6409 78.9458 33.8318 78.6719C34.0251 78.4509 34.3138 78.2515 34.7957 78.0929L53.1502 72.1225C53.5844 71.9807 53.9232 71.9759 54.1165 72.072C54.3097 72.221 54.4099 72.5045 54.4123 73.0331L54.4982 89.6662L56.9604 88.8661L56.8745 72.233C56.8722 71.7044 56.9676 71.3561 57.1585 71.0822C57.3517 70.8611 57.6404 70.6617 58.1224 70.5031L64.1586 68.5402C64.5928 68.3985 64.9316 68.3937 65.1249 68.4898C65.3181 68.6387 65.4184 68.9222 65.4207 69.4508L65.6617 115.919C65.6641 116.448 65.5687 116.796 65.3778 117.07C65.1845 117.291 64.8481 117.507 64.4139 117.649L58.3776 119.612L58.38 119.61ZM44.8951 113.048C45.4271 112.875 45.8113 112.644 46.0045 112.318C46.1978 112.044 46.2908 111.59 46.2884 110.903L46.1405 82.4392L41.8913 83.8207L42.0392 112.284C42.044 112.971 42.1418 113.363 42.3351 113.509C42.5307 113.711 42.8671 113.706 43.4469 113.517L44.8951 113.046V113.048ZM68.8111 116.217C68.3291 116.373 68.038 116.364 67.8448 116.268C67.6515 116.119 67.5513 115.835 67.5489 115.307L67.308 68.8382C67.3056 68.3096 67.401 67.9612 67.5919 67.6873C67.7851 67.4663 68.0738 67.2669 68.5558 67.1083L74.592 65.143C75.0262 65.0012 75.365 64.9964 75.5583 65.0925C75.7516 65.2415 75.8518 65.525 75.8541 66.0536L76.0951 112.522C76.0975 113.051 76.0021 113.399 75.8112 113.673C75.6179 113.894 75.2815 114.11 74.8473 114.252L68.8111 116.217Z" fill="#111111"/>
<path d="M108.149 79.6668C108.151 80.1953 108.056 80.5966 107.865 80.8176C107.674 81.0915 107.335 81.2549 106.901 81.3966L91.2045 86.5045L91.2236 90.1493C91.2308 91.3626 91.2356 92.5783 91.2904 93.83C91.2976 95.0962 91.591 95.9539 92.0778 96.3767C92.5168 96.8693 93.3852 96.8501 94.6903 96.3719C97.0571 95.5503 99.326 94.7045 101.547 93.8228C103.721 93.0107 106.037 92.0977 108.452 91.0478C108.886 90.8532 109.177 90.8124 109.371 90.9085C109.516 91.0718 109.614 91.4106 109.714 91.9079L110.229 97.876C110.28 98.3877 110.187 98.7361 109.993 98.9571C109.752 99.1421 109.416 99.3559 108.982 99.6034C105.794 100.906 102.704 102.121 99.808 103.275C96.8137 104.356 93.8195 105.434 90.7298 106.441C87.6377 107.448 85.4116 107.272 84.0994 105.901C82.7371 104.493 82.0476 101.862 82.0261 97.8471C82.0094 94.7838 81.9951 91.7734 82.0261 88.8543C82.0118 86.0024 82.0452 83.1361 82.1263 80.3587C82.112 77.6126 82.1955 74.888 82.2766 72.1106C82.3124 69.4558 82.3935 66.676 82.5247 63.8842C82.5224 63.3556 82.6655 62.9928 82.8564 62.7189C82.9995 62.5123 83.2906 62.3129 83.7726 62.1567L106.763 54.6775C107.197 54.5357 107.536 54.5309 107.729 54.627C107.922 54.776 108.023 55.0595 108.025 55.5881L108.056 61.4504C108.058 61.9789 107.963 62.3802 107.772 62.6012C107.581 62.8751 107.242 63.0385 106.808 63.1802L91.4002 68.192C91.3119 69.8066 91.2713 71.4067 91.2809 72.9395C91.2403 74.5397 91.1998 76.1398 91.2093 77.7231L106.858 72.632C107.292 72.4902 107.631 72.4854 107.825 72.5815C108.018 72.7305 108.118 73.0164 108.12 73.5426L108.151 79.6692L108.149 79.6668ZM127.999 73.2086C128.002 73.7372 127.906 74.1384 127.716 74.3595C127.522 74.6334 127.186 74.7967 126.752 74.9385L122.309 76.3848L122.419 97.4531C122.421 97.9817 122.326 98.3301 122.135 98.6039C121.942 98.825 121.605 99.0412 121.171 99.183L114.41 101.384C113.928 101.54 113.636 101.53 113.443 101.434C113.25 101.285 113.15 101.002 113.147 100.473L112.906 54.0048C112.904 53.4762 112.999 53.1278 113.19 52.8539C113.384 52.6329 113.672 52.4335 114.154 52.2749L120.916 50.0741C121.35 49.9324 121.689 49.9276 121.882 50.0237C122.075 50.1726 122.176 50.4561 122.178 50.9847L122.264 67.6178L126.706 66.1714C127.141 66.0297 127.479 66.0249 127.673 66.121C127.866 66.27 127.966 66.5559 127.968 67.082L127.999 73.2062V73.2086Z" fill="#111111"/>
</svg>
