<svg width="24" height="24" viewBox="0 0 24 24" fill="none" xmlns="http://www.w3.org/2000/svg">
<path fill-rule="evenodd" clip-rule="evenodd" d="M11.2966 6.25626L12 6.09783L12.7034 6.25626C12.8164 6.2817 12.9334 6.31226 13.0528 6.34873C13.1653 5.66161 13.4529 5.03339 13.8682 4.51137C13.6109 4.42226 13.3658 4.35537 13.1429 4.30514V4.15385C13.1429 3.51659 12.6312 3 12 3C11.3688 3 10.8571 3.51659 10.8571 4.15385V4.30514C9.18953 4.68075 6.28571 5.98884 6.28571 10.5444C6.28571 12.142 6.28571 12.6745 5.14286 13.7396C4 14.8047 4 16.4024 4 16.9349C4 17.4675 4 18 5.14286 18H12H18.8571C20 18 20 17.4675 20 16.9349C20 16.4024 20 14.8047 18.8571 13.7396C17.8132 12.7667 17.7228 12.2381 17.715 10.9363C17.483 10.9781 17.2441 11 17 11C16.5501 11 16.1176 10.9257 15.714 10.7888C15.7134 11.4366 15.7236 12.2057 15.945 12.9279C16.2349 13.8736 16.805 14.561 17.4936 15.2027C17.6897 15.3855 17.8278 15.6496 17.9115 16H12H6.08852C6.1722 15.6496 6.31026 15.3855 6.50642 15.2027C7.19505 14.561 7.76507 13.8736 8.05501 12.9279C8.28855 12.1662 8.28709 11.3523 8.28588 10.6835L8.28571 10.5444C8.28571 8.73367 8.84381 7.79299 9.36706 7.2647C9.93884 6.6874 10.6788 6.39541 11.2966 6.25626Z" fill="#111111"/>
<path d="M10 19C10 19 10 21 12 21C14 21 14 19 14 19" stroke="#111111" stroke-width="2"/>
<circle cx="17" cy="7" r="2" fill="#FF5C00"/>
</svg>
