<svg width="24" height="24" viewBox="0 0 24 24" fill="none" xmlns="http://www.w3.org/2000/svg">
<g id="Icon/24/share">
<path id="Union" d="M20.0385 9.74716L20.5577 8.89246V8.89246L20.0385 9.74716ZM20.0385 13.166L19.5194 12.3113V12.3113L20.0385 13.166ZM12.7063 5.29372L12.1872 6.14842L12.7063 5.29372ZM9.66804 8.46696L10.0664 9.38419L10.668 9.1229V8.46696H9.66804ZM9.43307 8.57156L9.84786 9.48148L9.84787 9.48148L9.43307 8.57156ZM3.00037 19.2422L4.00005 19.2675L3.00037 19.2422ZM4.23648 19.6577L5.0192 20.2801L4.23648 19.6577ZM9.66804 15.2167H10.668V13.7585L9.30779 14.2838L9.66804 15.2167ZM12.7063 17.6194L12.1872 16.7647L12.7063 17.6194ZM19.5194 10.6019C20.1606 10.9913 20.1606 11.9218 19.5194 12.3113L20.5577 14.0207C22.4812 12.8524 22.4812 10.0608 20.5577 8.89246L19.5194 10.6019ZM12.1872 6.14842L19.5194 10.6019L20.5577 8.89246L13.2254 4.43903L12.1872 6.14842ZM10.668 7.00312C10.668 6.22341 11.5207 5.74366 12.1872 6.14842L13.2254 4.43903C11.2262 3.22472 8.66804 4.66399 8.66804 7.00312H10.668ZM10.668 8.46696V7.00312H8.66804V8.46696H10.668ZM9.26968 7.54973C9.18657 7.58583 9.10277 7.62313 9.01827 7.66165L9.84787 9.48148C9.92165 9.44784 9.99449 9.41542 10.0664 9.38419L9.26968 7.54973ZM9.01827 7.66165C4.16628 9.87348 2.10113 15.2487 2.00069 19.2168L4.00005 19.2675C4.08888 15.7578 5.93324 11.266 9.84786 9.48148L9.01827 7.66165ZM2.00069 19.2168C1.98197 19.9566 2.36686 20.6738 3.11875 20.9201C3.84762 21.1589 4.57456 20.8393 5.0192 20.2801L3.45376 19.0354C3.41593 19.0829 3.51495 18.9453 3.74145 19.0195C3.84322 19.0529 3.92022 19.1195 3.96394 19.1891C4.00637 19.2566 3.99934 19.2954 4.00005 19.2675L2.00069 19.2168ZM5.0192 20.2801C6.12736 18.8864 7.765 17.0235 10.0283 16.1495L9.30779 14.2838C6.50332 15.3668 4.58091 17.6178 3.45376 19.0354L5.0192 20.2801ZM10.668 15.91V15.2167H8.66804V15.91H10.668ZM12.1872 16.7647C11.5207 17.1695 10.668 16.6897 10.668 15.91H8.66804C8.66804 18.2491 11.2262 19.6884 13.2254 18.4741L12.1872 16.7647ZM19.5194 12.3113L12.1872 16.7647L13.2254 18.4741L20.5577 14.0207L19.5194 12.3113Z" fill="#111111"/>
</g>
</svg>
