<svg width="20" height="17" viewBox="0 0 20 17" fill="none" xmlns="http://www.w3.org/2000/svg">
<g id="Group 370">
<g id="Union">
<mask id="path-1-inside-1_2386_21815" fill="white">
<path fill-rule="evenodd" clip-rule="evenodd" d="M7.5086 0C6.61564 0 5.83087 0.591955 5.58555 1.45056L5.14286 3H4C1.79086 3 0 4.79086 0 7V13C0 15.2091 1.79086 17 4 17H16C18.2091 17 20 15.2091 20 13V7C20 4.79086 18.2091 3 16 3H14.8571L14.4144 1.45056C14.1691 0.591955 13.3844 0 12.4914 0H7.5086Z"/>
</mask>
<path d="M5.58555 1.45056L7.5086 2V2L5.58555 1.45056ZM5.14286 3V5H6.65146L7.06591 3.54944L5.14286 3ZM14.8571 3L12.9341 3.54944L13.3485 5H14.8571V3ZM14.4144 1.45056L12.4914 2V2L14.4144 1.45056ZM7.5086 2L7.5086 2V-2C5.72268 -2 4.15314 -0.81609 3.66251 0.901116L7.5086 2ZM7.06591 3.54944L7.5086 2L3.66251 0.901116L3.21981 2.45056L7.06591 3.54944ZM4 5H5.14286V1H4V5ZM2 7C2 5.89543 2.89543 5 4 5V1C0.686292 1 -2 3.68629 -2 7H2ZM2 13V7H-2V13H2ZM4 15C2.89543 15 2 14.1046 2 13H-2C-2 16.3137 0.686291 19 4 19V15ZM16 15H4V19H16V15ZM18 13C18 14.1046 17.1046 15 16 15V19C19.3137 19 22 16.3137 22 13H18ZM18 7V13H22V7H18ZM16 5C17.1046 5 18 5.89543 18 7H22C22 3.68629 19.3137 1 16 1V5ZM14.8571 5H16V1H14.8571V5ZM12.4914 2L12.9341 3.54944L16.7802 2.45056L16.3375 0.901116L12.4914 2ZM12.4914 2V2L16.3375 0.901117C15.8469 -0.816092 14.2773 -2 12.4914 -2V2ZM7.5086 2H12.4914V-2H7.5086V2Z" fill="#FF5C00" mask="url(#path-1-inside-1_2386_21815)"/>
</g>
<circle id="Ellipse 56" cx="10" cy="10" r="3" stroke="#FF5C00" stroke-width="2"/>
</g>
</svg>
