<svg width="24" height="25" viewBox="0 0 24 25" fill="none" xmlns="http://www.w3.org/2000/svg">
<path d="M18.502 6.61865L6.50195 18.6187" stroke="#707070" stroke-width="2" stroke-linecap="round"/>
<path fill-rule="evenodd" clip-rule="evenodd" d="M13.8264 15.8137L11.6437 17.9965C11.7612 18.0002 11.8801 18.002 12.0003 18.002C17.3841 18.002 20.1874 14.3043 20.9338 12.3605C20.9791 12.2424 21.0006 12.1211 21.0005 12.0017C21.0006 11.8824 20.9791 11.761 20.9338 11.643C20.7311 11.115 20.3766 10.4577 19.8599 9.78017L18.4316 11.2085C18.6299 11.4901 18.7882 11.7597 18.9083 12.0017C18.2933 13.2415 16.6753 15.2025 13.8264 15.8137ZM14.9986 9.3543C14.2657 8.52481 13.1939 8.00173 12 8.00173C9.79086 8.00173 8 9.7926 8 12.0017C8 13.1957 8.5231 14.2674 9.35262 15.0004L10.7723 13.5807C10.3023 13.2147 10 12.6435 10 12.0017C10 10.8972 10.8954 10.0017 12 10.0017C12.6418 10.0017 13.213 10.304 13.5789 10.774L14.9986 9.3543ZM15.5678 8.78506C14.5945 8.31459 13.4111 8.00146 12.0003 8.00146C8.00072 8.00146 5.82818 10.5181 5.09228 12.0017C5.61045 13.0464 6.84091 14.6032 8.91994 15.433L7.40696 16.946C4.95704 15.7037 3.56098 13.6476 3.06673 12.3605C3.0214 12.2424 2.99994 12.1211 3 12.0017C2.99994 11.8824 3.0214 11.761 3.06673 11.643C3.81316 9.69916 6.61642 6.00146 12.0003 6.00146C14.0461 6.00146 15.7194 6.53541 17.0487 7.30416L15.5678 8.78506ZM15.0481 14.592C14.9081 14.7566 14.755 14.9098 14.5903 15.0498L15.0481 14.592Z" fill="#707070"/>
</svg>
