<svg width="24" height="24" viewBox="0 0 24 24" fill="none" xmlns="http://www.w3.org/2000/svg">
<circle cx="12" cy="12" r="7.5" fill="white" stroke="#E45200"/>
<path d="M13 9C13 9.55228 12.5523 10 12 10C11.4477 10 11 9.55228 11 9C11 8.44772 11.4477 8 12 8C12.5523 8 13 8.44772 13 9Z" fill="#E45200"/>
<path d="M11 11.5455C11 11.2442 11.2239 11 11.5 11H12.5C12.7761 11 13 11.2442 13 11.5455V16.4545C13 16.7558 12.7761 17 12.5 17H11.5C11.2239 17 11 16.7558 11 16.4545V11.5455Z" fill="#E45200"/>
</svg>
