<svg width="24" height="24" viewBox="0 0 24 24" fill="none" xmlns="http://www.w3.org/2000/svg">
<path fill-rule="evenodd" clip-rule="evenodd" d="M16.8663 10.9332C16.8663 14.2099 14.2099 16.8663 10.9331 16.8663C7.65636 16.8663 5 14.2099 5 10.9332C5 7.65636 7.65636 5 10.9331 5C14.2099 5 16.8663 7.65636 16.8663 10.9332ZM15.7994 17.199C14.4558 18.244 12.7671 18.8663 10.9331 18.8663C6.55179 18.8663 3 15.3145 3 10.9332C3 6.55179 6.55179 3 10.9331 3C15.3145 3 18.8663 6.55179 18.8663 10.9332C18.8663 12.7669 18.2441 14.4554 17.1993 15.7989C17.2369 15.8272 17.273 15.8584 17.3072 15.8926L20.7071 19.2925C21.0976 19.683 21.0976 20.3162 20.7071 20.7067C20.3166 21.0972 19.6834 21.0972 19.2929 20.7067L15.893 17.3068C15.8588 17.2726 15.8276 17.2365 15.7994 17.199Z" fill="#111111"/>
</svg>
