<svg width="164" height="126" viewBox="0 0 164 126" fill="none" xmlns="http://www.w3.org/2000/svg">
<g id="Group 509" filter="url(#filter0_d_3102_5564)">
<g id="&#236;&#157;&#140;&#236;&#155;&#144;">
<rect id="Rectangle 142" x="72" y="19" width="80" height="80" rx="40" fill="black"/>
<rect id="Rectangle 143" width="26.6667" height="26.6667" rx="13.3333" transform="matrix(1 0 0 -1 98.666 72.334)" fill="#0F0AE3"/>
</g>
<rect id="Rectangle 291" x="12" y="8" width="102" height="102" rx="16" fill="#FF5C00"/>
<g id="Group 507">
<g id="Group 492">
<g id="Group">
<path id="Vector" d="M31.6761 47.2276C31.6749 46.9569 31.7238 46.7785 31.8216 46.6383C31.9206 46.5251 32.0685 46.423 32.3153 46.3418L45.8733 41.9323C45.8464 41.5349 45.7706 41.2618 45.6215 41.1474C45.448 41.0416 45.2243 41.033 44.9518 41.1216L32.5806 45.1447C32.3337 45.2246 32.1846 45.2468 32.0856 45.1705C31.9866 45.1213 31.9352 44.9478 31.934 44.6784L31.9218 42.2719C31.9206 42.0012 31.9695 41.8228 32.0672 41.6826C32.1662 41.5694 32.3141 41.4673 32.561 41.3861L47.8765 36.4058C48.7675 36.1154 49.4373 36.1696 49.8846 36.5116C50.3331 36.8807 50.5592 37.6189 50.5654 38.7544C50.5702 39.6194 50.5507 40.6282 50.5556 41.7367L50.426 45.3538L51.7374 44.9269C51.9599 44.8543 52.1334 44.8519 52.2324 44.9011C52.3314 44.9773 52.3828 45.1238 52.384 45.3932L52.3962 47.7726C52.3974 48.0433 52.3486 48.2487 52.2508 48.3619C52.1518 48.5022 51.9794 48.5858 51.757 48.6584L30.8756 55.451C30.6287 55.5309 30.4796 55.5531 30.3806 55.4768C30.2816 55.4276 30.2303 55.2553 30.229 54.9847L30.2168 52.6053C30.2156 52.3346 30.2645 52.1562 30.3623 52.0159C30.4613 51.9027 30.6091 51.8006 30.856 51.7194L45.7511 46.8757C45.7511 46.6862 45.7743 46.4894 45.7975 46.2913L45.7951 45.7229L32.3361 50.1003C32.0892 50.1803 31.9401 50.2025 31.8411 50.1262C31.7421 50.077 31.6908 49.9047 31.6896 49.6341L31.6774 47.2276H31.6761ZM51.1728 59.928C51.1985 60.136 51.1496 60.2873 51.0506 60.3734C50.9271 60.4682 50.7536 60.5506 50.5311 60.6773C49.3933 61.1559 48.281 61.6259 47.2177 62.0528C46.13 62.4613 45.041 62.8955 43.9275 63.3126L40.3905 64.5442C39.1292 64.9551 37.7432 65.4324 36.2582 65.9147C35.4906 66.1645 34.8233 66.2998 34.2782 66.3416C33.7087 66.365 33.2369 66.301 32.8886 66.0894C32.5158 65.8852 32.2408 65.5419 32.0905 65.0757C31.89 64.5995 31.8118 63.9745 31.8081 63.2167L31.7959 60.756C31.7947 60.5124 31.8436 60.334 31.9414 60.1938C32.0404 60.0806 32.1882 59.9785 32.4351 59.8973L46.5626 55.3021L46.559 54.4913L32.4315 59.0865C31.9866 59.2317 31.7874 59.0521 31.7837 58.512L31.7764 56.9975C31.7751 56.7268 31.824 56.5484 31.9218 56.4081C32.0208 56.2949 32.1687 56.1928 32.4156 56.1116L50.1804 50.3341C50.4028 50.2615 50.5764 50.2591 50.6754 50.3083C50.7743 50.3845 50.8257 50.5297 50.8269 50.8004L50.855 56.1818C50.8562 56.4524 50.8074 56.6308 50.7096 56.7711C50.6106 56.8843 50.4382 56.995 50.2158 57.0676L36.0883 61.6628L36.0907 62.0958C36.092 62.3665 36.1922 62.5228 36.3902 62.54C36.5882 62.5301 36.8852 62.46 37.3056 62.3235C38.6916 61.8732 39.9529 61.4352 41.1409 61.0489L44.4812 59.8813C45.5201 59.4888 46.5101 59.1406 47.4988 58.7642C48.4387 58.4049 49.403 58.01 50.393 57.6065C50.6155 57.5068 50.7646 57.4859 50.8147 57.5782C50.8648 57.6163 50.8905 57.743 50.9406 57.9436L51.174 59.9256L51.1728 59.928Z" fill="#111111"/>
<path id="Vector_2" d="M67.2888 37.7839C67.29 38.0546 67.2412 38.2601 67.1434 38.3733C67.0444 38.5135 66.872 38.5972 66.6496 38.6698L59.4251 41.0196C59.2271 41.0836 59.1281 41.1697 59.0793 41.2399C59.0304 41.3641 59.0059 41.5068 59.0071 41.6963V41.967C59.0108 42.2918 59.0854 42.4566 59.2345 42.4628C59.3591 42.5305 59.5816 42.4849 59.903 42.3804C60.695 42.1232 61.4369 41.8821 62.1054 41.6102C62.7483 41.401 63.3423 41.1808 63.9363 40.9335C64.5046 40.7219 65.0742 40.482 65.6181 40.2236C66.1619 39.9923 66.7315 39.7537 67.3487 39.4978C67.5712 39.3981 67.7203 39.3772 67.8193 39.4264C67.8938 39.5101 67.9451 39.6835 67.9953 39.9382L68.2055 42.3348C68.2311 42.5969 68.1835 42.8024 68.0845 42.8885C67.961 43.0103 67.7887 43.1198 67.5663 43.2194C65.9346 43.9121 64.4252 44.5113 62.9903 45.0329C61.531 45.6161 60.0216 46.134 58.4633 46.6409C57.6713 46.8981 57.0027 47.0617 56.4833 47.0949C55.9382 47.1638 55.5165 47.1109 55.1939 46.919C54.8455 46.7615 54.6219 46.4281 54.4948 45.9544C54.3444 45.5164 54.2662 44.8914 54.2625 44.0794L54.2418 39.969C54.2405 39.6983 54.2894 39.5199 54.3872 39.3796C54.4862 39.2665 54.6341 39.1643 54.881 39.0831L62.081 36.7419C62.2545 36.6853 62.378 36.6188 62.4513 36.513C62.5002 36.4429 62.5247 36.326 62.5234 36.1648L62.521 35.7859C62.521 35.6235 62.4941 35.4968 62.4452 35.4587C62.3951 35.4205 62.2717 35.434 62.1225 35.482L54.8736 37.8393C54.6268 37.9193 54.4776 37.9414 54.3786 37.8651C54.2796 37.8159 54.2283 37.6424 54.2271 37.373L54.2149 35.0207C54.2136 34.75 54.2625 34.5716 54.3603 34.4313C54.4593 34.3182 54.6072 34.216 54.8541 34.1348L64.8493 30.8844C65.7403 30.5952 66.3599 30.6371 66.7339 30.9754C67.0823 31.3494 67.2595 32.0236 67.2644 32.9968L67.2888 37.7827V37.7839ZM75.3077 49.9923C75.3138 51.1278 75.0951 52.0112 74.6526 52.6707C74.2102 53.3018 73.5429 53.7902 72.6519 54.0794L58.4498 58.6979C57.5588 58.9871 56.8891 58.9342 56.4417 58.5921C55.9932 58.223 55.7671 57.4848 55.761 56.3493L55.7255 49.4276C55.7243 49.1569 55.7732 48.9785 55.871 48.8382C55.97 48.7251 56.1178 48.6229 56.3647 48.5417L59.8285 47.4148C60.0509 47.3422 60.2245 47.3397 60.3235 47.3889C60.4225 47.4652 60.4738 47.6116 60.475 47.8811L60.4799 48.9084L70.5252 45.6419L70.5203 44.6146C70.5191 44.3439 70.568 44.1655 70.6658 44.0253C70.7648 43.9121 70.9127 43.81 71.1596 43.7288L74.6233 42.6018C74.8457 42.5292 75.0193 42.5268 75.1183 42.576C75.2173 42.6523 75.2686 42.7987 75.2698 43.0681L75.3053 49.9898L75.3077 49.9923ZM69.8359 51.1217C70.1085 51.0331 70.3052 50.915 70.4042 50.7747C70.502 50.6074 70.5509 50.3478 70.5485 50.023L70.5448 49.3734L60.4995 52.6399L60.5031 53.2895C60.5043 53.6143 60.5557 53.8419 60.6547 53.944C60.7537 54.0203 60.9272 54.0178 61.2242 53.9206L69.8347 51.1205L69.8359 51.1217ZM67.9647 34.3686C67.9635 34.0979 68.0124 33.9195 68.1101 33.7793C68.2091 33.6661 68.357 33.564 68.6039 33.4828L70.4592 32.8787L70.4433 29.7414C70.4421 29.4707 70.491 29.2923 70.5888 29.1521C70.6878 29.0389 70.8357 28.9368 71.0826 28.8556L74.5475 27.7311C74.77 27.6585 74.9435 27.656 75.0425 27.7053C75.1415 27.7815 75.1928 27.9267 75.1941 28.1974L75.2588 40.6358C75.2601 40.9065 75.2112 41.1119 75.1134 41.2251C75.0144 41.3654 74.8421 41.449 74.6196 41.5216L71.1559 42.6486C70.909 42.7285 70.7599 42.7507 70.6609 42.6744C70.5619 42.6252 70.5106 42.4517 70.5093 42.1823L70.4837 37.3693L68.6284 37.9734C68.3815 38.0534 68.2324 38.0755 68.1334 37.9992C68.0344 37.95 67.983 37.7778 67.9818 37.5071L67.9659 34.3711L67.9647 34.3686Z" fill="#111111"/>
</g>
<g id="Group_2">
<path id="Vector_3" d="M60.1231 88.92C59.8762 89 59.7271 88.9951 59.6281 88.9459C59.5291 88.8696 59.4778 88.7244 59.4766 88.4537L59.4203 77.6652L58.159 78.0749L58.1945 84.9707C58.2006 86.1063 57.9818 86.9897 57.5394 87.6491C57.0969 88.2803 56.4296 88.7687 55.5398 89.0578L50.1951 90.7962C49.3041 91.0854 48.6356 91.0325 48.187 90.6904C47.7385 90.3213 47.5124 89.5832 47.5063 88.4476L47.4024 68.5461C47.4011 68.2755 47.45 68.0971 47.5478 67.9568C47.6468 67.8436 47.7947 67.7415 48.0416 67.6603L57.444 64.603C57.6665 64.5304 57.84 64.5279 57.939 64.5771C58.038 64.6534 58.0893 64.7986 58.0906 65.0693L58.1346 73.5867L59.3959 73.177L59.3519 64.6596C59.3507 64.3889 59.3996 64.2105 59.4973 64.0703C59.5963 63.9571 59.7442 63.855 59.9911 63.7738L63.0833 62.7686C63.3057 62.696 63.4793 62.6935 63.5783 62.7428C63.6773 62.819 63.7286 62.9642 63.7298 63.2349L63.8533 87.0303C63.8545 87.3009 63.8056 87.4793 63.7078 87.6196C63.6088 87.7328 63.4365 87.8435 63.2141 87.9161L60.1219 88.9212L60.1231 88.92ZM53.2152 85.56C53.4877 85.4715 53.6845 85.3534 53.7835 85.186C53.8825 85.0458 53.9302 84.8132 53.929 84.4614L53.8532 69.8859L51.6764 70.5934L51.7522 85.1688C51.7546 85.5207 51.8048 85.7212 51.9038 85.7963C52.004 85.8996 52.1763 85.8971 52.4733 85.8L53.2152 85.5588V85.56ZM65.4666 87.1828C65.2197 87.2628 65.0706 87.2579 64.9716 87.2087C64.8726 87.1324 64.8213 86.9872 64.82 86.7165L64.6966 62.9212C64.6954 62.6505 64.7443 62.4721 64.842 62.3318C64.941 62.2186 65.0889 62.1165 65.3358 62.0353L68.428 61.0289C68.6504 60.9564 68.824 60.9539 68.923 61.0031C69.022 61.0794 69.0733 61.2246 69.0745 61.4952L69.198 85.2906C69.1992 85.5613 69.1503 85.7397 69.0525 85.8799C68.9536 85.9931 68.7812 86.1038 68.5588 86.1764L65.4666 87.1828Z" fill="#111111"/>
<path id="Vector_4" d="M85.6179 68.4658C85.6191 68.7365 85.5702 68.942 85.4724 69.0552C85.3747 69.1954 85.2011 69.2791 84.9787 69.3517L76.9378 71.9673L76.9475 73.8337C76.9512 74.455 76.9536 75.0775 76.9818 75.7185C76.9854 76.3669 77.1358 76.8061 77.3851 77.0226C77.61 77.2748 78.0549 77.265 78.7234 77.0202C79.9358 76.5994 81.0982 76.1663 82.236 75.7148C83.3495 75.299 84.5362 74.8315 85.7731 74.2938C85.9955 74.1942 86.1447 74.1732 86.2436 74.2225C86.3182 74.3061 86.3683 74.4796 86.4196 74.7343L86.6836 77.7903C86.7093 78.0524 86.6616 78.2308 86.5626 78.344C86.4392 78.4387 86.2669 78.5482 86.0444 78.6749C84.4116 79.3418 82.8288 79.9643 81.345 80.5548C79.8112 81.1085 78.2773 81.6609 76.6945 82.1764C75.1106 82.6919 73.9702 82.6021 73.298 81.8996C72.6001 81.1786 72.2469 79.8314 72.2359 77.7756C72.2274 76.2069 72.22 74.6654 72.2359 73.1705C72.2286 71.7102 72.2457 70.2424 72.2873 68.8202C72.2799 67.4139 72.3227 66.0188 72.3643 64.5965C72.3826 63.237 72.4242 61.8136 72.4914 60.384C72.4901 60.1133 72.5635 59.9275 72.6613 59.7873C72.7346 59.6814 72.8837 59.5793 73.1306 59.4994L84.9078 55.6694C85.1302 55.5968 85.3038 55.5944 85.4028 55.6436C85.5018 55.7199 85.5531 55.865 85.5543 56.1357L85.5702 59.1377C85.5714 59.4083 85.5225 59.6138 85.4248 59.727C85.327 59.8672 85.1534 59.9509 84.931 60.0235L77.038 62.5899C76.9928 63.4167 76.972 64.236 76.9769 65.021C76.9561 65.8404 76.9353 66.6598 76.9402 67.4705L84.9567 64.8635C85.1791 64.7909 85.3527 64.7885 85.4517 64.8377C85.5507 64.9139 85.602 65.0604 85.6032 65.3298L85.6191 68.4671L85.6179 68.4658ZM95.7866 65.1588C95.7879 65.4294 95.739 65.6349 95.6412 65.7481C95.5422 65.8884 95.3699 65.972 95.1474 66.0446L92.8717 66.7852L92.9279 77.5738C92.9291 77.8445 92.8802 78.0229 92.7825 78.1631C92.6835 78.2763 92.5111 78.387 92.2887 78.4596L88.825 79.5866C88.5781 79.6666 88.429 79.6616 88.33 79.6124C88.231 79.5362 88.1796 79.391 88.1784 79.1203L88.055 55.3249C88.0537 55.0543 88.1026 54.8759 88.2004 54.7356C88.2994 54.6224 88.4473 54.5203 88.6942 54.4391L92.1579 53.3121C92.3804 53.2396 92.5539 53.2371 92.6529 53.2863C92.7519 53.3626 92.8032 53.5078 92.8045 53.7784L92.8485 62.2959L95.1242 61.5552C95.3467 61.4826 95.5202 61.4802 95.6192 61.5294C95.7182 61.6056 95.7695 61.7521 95.7708 62.0215L95.7866 65.1575V65.1588Z" fill="#111111"/>
</g>
</g>
</g>
</g>
<defs>
<filter id="filter0_d_3102_5564" x="0" y="0" width="164" height="126" filterUnits="userSpaceOnUse" color-interpolation-filters="sRGB">
<feFlood flood-opacity="0" result="BackgroundImageFix"/>
<feColorMatrix in="SourceAlpha" type="matrix" values="0 0 0 0 0 0 0 0 0 0 0 0 0 0 0 0 0 0 127 0" result="hardAlpha"/>
<feOffset dy="4"/>
<feGaussianBlur stdDeviation="6"/>
<feComposite in2="hardAlpha" operator="out"/>
<feColorMatrix type="matrix" values="0 0 0 0 0.0776389 0 0 0 0 0.139392 0 0 0 0 0.358333 0 0 0 0.18 0"/>
<feBlend mode="normal" in2="BackgroundImageFix" result="effect1_dropShadow_3102_5564"/>
<feBlend mode="normal" in="SourceGraphic" in2="effect1_dropShadow_3102_5564" result="shape"/>
</filter>
</defs>
</svg>
