<svg width="18" height="22" viewBox="0 0 18 22" fill="none" xmlns="http://www.w3.org/2000/svg">
<path id="Vector" d="M17.1437 16.8664C16.8385 17.6 16.4772 18.2754 16.0586 18.8963C15.4881 19.7427 15.0209 20.3287 14.6609 20.654C14.1027 21.1881 13.5048 21.4616 12.8644 21.4771C12.4047 21.4771 11.8504 21.341 11.205 21.0649C10.5576 20.7901 9.96262 20.654 9.41858 20.654C8.84801 20.654 8.23608 20.7901 7.58155 21.0649C6.92602 21.341 6.39793 21.4849 5.99417 21.4992C5.38012 21.5264 4.76806 21.2451 4.15713 20.654C3.7672 20.3001 3.27947 19.6935 2.6952 18.8341C2.06832 17.9163 1.55294 16.8521 1.14918 15.6388C0.716767 14.3283 0.5 13.0592 0.5 11.8307C0.5 10.4233 0.792262 9.20949 1.37766 8.19232C1.83773 7.37529 2.44978 6.73079 3.21581 6.25766C3.98185 5.78452 4.80955 5.54342 5.70091 5.52799C6.18863 5.52799 6.82822 5.68497 7.62303 5.99348C8.4156 6.30303 8.92451 6.46 9.14763 6.46C9.31444 6.46 9.87978 6.27645 10.8382 5.91052C11.7445 5.57116 12.5094 5.43064 13.136 5.48599C14.834 5.62858 16.1097 6.32506 16.9581 7.57984C15.4395 8.53725 14.6883 9.87823 14.7032 11.5985C14.7169 12.9384 15.1841 14.0535 16.1022 14.9388C16.5183 15.3497 16.983 15.6673 17.5 15.8929C17.3879 16.2312 17.2695 16.5553 17.1437 16.8664ZM13.2494 0.921096C13.2494 1.97134 12.8806 2.95194 12.1456 3.85958C11.2586 4.93858 10.1857 5.56208 9.0223 5.4637C9.00748 5.3377 8.99888 5.2051 8.99888 5.06575C8.99888 4.05752 9.4207 2.97851 10.1698 2.09628C10.5438 1.64959 11.0194 1.27818 11.5962 0.98189C12.1718 0.690025 12.7162 0.528617 13.2282 0.500977C13.2431 0.641377 13.2494 0.781787 13.2494 0.921083V0.921096Z" fill="white"/>
</svg>
