<svg width="24" height="24" viewBox="0 0 24 24" fill="none" xmlns="http://www.w3.org/2000/svg">
<path fill-rule="evenodd" clip-rule="evenodd" d="M19 12C19 15.866 15.866 19 12 19C8.13401 19 5 15.866 5 12C5 8.13401 8.13401 5 12 5C15.866 5 19 8.13401 19 12ZM9.17158 9.17159C9.56211 8.78106 10.1953 8.78106 10.5858 9.17159L12 10.5858L13.4142 9.17156C13.8048 8.78104 14.4379 8.78104 14.8284 9.17156C15.219 9.56209 15.219 10.1953 14.8284 10.5858L13.4142 12L14.8284 13.4142C15.219 13.8048 15.219 14.4379 14.8284 14.8284C14.4379 15.219 13.8047 15.219 13.4142 14.8284L12 13.4142L10.5858 14.8284C10.1953 15.2189 9.56211 15.2189 9.17159 14.8284C8.78106 14.4379 8.78106 13.8047 9.17159 13.4142L10.5858 12L9.17158 10.5858C8.78106 10.1953 8.78106 9.56211 9.17158 9.17159Z" fill="#707070"/>
</svg>
